<svg id="Layer_1" data-name="Layer 1" xmlns="http://www.w3.org/2000/svg" viewBox="0 0 288.87 385.59"><defs><style>.cls-1{fill:#25478f;}.cls-2{fill:#45a82c;}.cls-3{fill:#161430;}</style></defs><path class="cls-1" d="M53.44,24.73a13.75,13.75,0,0,0-27.49,0,14,14,0,0,0,.5,3.63h-.06l.15.34A13.82,13.82,0,0,0,28,31.83L39.7,58,51.44,31.83a13.82,13.82,0,0,0,1.41-3.13l.15-.34h-.06A13.6,13.6,0,0,0,53.44,24.73ZM39.7,34.49a9.65,9.65,0,1,1,9.65-9.65A9.65,9.65,0,0,1,39.7,34.49Z" transform="translate(-25.95 -10.99)"/><path class="cls-2" d="M239.45,354.15a13.75,13.75,0,1,0-27.49,0,13.94,13.94,0,0,0,.5,3.62h-.06l.15.35a13.82,13.82,0,0,0,1.41,3.13L225.7,387.4l11.75-26.15a13.82,13.82,0,0,0,1.41-3.13l.15-.35H239A13.94,13.94,0,0,0,239.45,354.15ZM225.7,363.9a9.65,9.65,0,1,1,9.65-9.64A9.65,9.65,0,0,1,225.7,363.9Z" transform="translate(-25.95 -10.99)"/><path class="cls-3" d="M75.9,54.53,75,58.65s-5.56.48-5.22-2.78S74.48,53.88,75.9,54.53Z" transform="translate(-25.95 -10.99)"/><path class="cls-3" d="M77.46,54.7l-.89,4.23s.36-.52,5,3.43,8.21-.87,8.21-.87,2.07-3.55-4.75-5.39S77.46,54.7,77.46,54.7Z" transform="translate(-25.95 -10.99)"/><path class="cls-3" d="M77.52,65.72l-3.21,2.71s-4.41-3.38-2-5.79S77.08,64.76,77.52,65.72Z" transform="translate(-25.95 -10.99)"/><path class="cls-3" d="M78.49,66.94l-3.27,2.78s7.86,12.27,12,7.13S79,68,78.49,66.94Z" transform="translate(-25.95 -10.99)"/><path class="cls-3" d="M102.7,76.44l-.57,4.17s-5.52.86-5.41-2.42S101.24,75.89,102.7,76.44Z" transform="translate(-25.95 -10.99)"/><path class="cls-3" d="M104.27,76.5l-.6,4.29s.32-.55,5.25,3.07,8.13-1.44,8.13-1.44,1.82-3.68-5.11-5S104.27,76.5,104.27,76.5Z" transform="translate(-25.95 -10.99)"/><path class="cls-3" d="M105.08,87.49l-3,2.92s-4.63-3.06-2.35-5.64S104.57,86.56,105.08,87.49Z" transform="translate(-25.95 -10.99)"/><path class="cls-3" d="M106.13,88.64l-3.07,3s8.68,11.7,12.41,6.29S106.66,89.69,106.13,88.64Z" transform="translate(-25.95 -10.99)"/><path class="cls-3" d="M133.62,88.23l.82,4.14s-4.93,2.61-5.9-.52S132.06,88.19,133.62,88.23Z" transform="translate(-25.95 -10.99)"/><path class="cls-3" d="M135.12,87.78,136,92s.12-.63,6,1.18,7.22-4,7.22-4,.52-4.08-6.48-3.1S135.12,87.78,135.12,87.78Z" transform="translate(-25.95 -10.99)"/><path class="cls-3" d="M139.48,97.9l-1.89,3.75s-5.38-1.38-4.07-4.56S138.7,97.19,139.48,97.9Z" transform="translate(-25.95 -10.99)"/><path class="cls-3" d="M140.85,98.65l-1.91,3.83s12,8.22,13.78,1.89S141.7,99.46,140.85,98.65Z" transform="translate(-25.95 -10.99)"/><path class="cls-3" d="M168.87,93.52l.76,4.14s-5,2.53-5.89-.62S167.32,93.45,168.87,93.52Z" transform="translate(-25.95 -10.99)"/><path class="cls-3" d="M170.39,93.09l.76,4.26s.14-.62,5.94,1.28,7.29-3.88,7.29-3.88.59-4.07-6.42-3.21S170.39,93.09,170.39,93.09Z" transform="translate(-25.95 -10.99)"/><path class="cls-3" d="M174.57,103.28l-2,3.72s-5.35-1.48-4-4.63S173.8,102.56,174.57,103.28Z" transform="translate(-25.95 -10.99)"/><path class="cls-3" d="M175.93,104.05l-2,3.8s11.88,8.43,13.75,2.13S176.76,104.88,175.93,104.05Z" transform="translate(-25.95 -10.99)"/><path class="cls-3" d="M205.44,96.92l-.07,4.21s-5.37,1.51-5.65-1.76S203.93,96.55,205.44,96.92Z" transform="translate(-25.95 -10.99)"/><path class="cls-3" d="M207,96.8l-.08,4.32s.25-.58,5.57,2.43,7.91-2.4,7.91-2.4,1.37-3.87-5.68-4.39S207,96.8,207,96.8Z" transform="translate(-25.95 -10.99)"/><path class="cls-3" d="M209.13,107.61l-2.65,3.26s-5-2.49-3-5.32S208.51,106.75,209.13,107.61Z" transform="translate(-25.95 -10.99)"/><path class="cls-3" d="M210.31,108.63,207.62,112s10,10.59,13.07,4.77S211,109.61,210.31,108.63Z" transform="translate(-25.95 -10.99)"/><path class="cls-3" d="M239.27,108.26l-.86,4.12s-5.56.48-5.22-2.78S237.85,107.61,239.27,108.26Z" transform="translate(-25.95 -10.99)"/><path class="cls-3" d="M240.83,108.43l-.89,4.23s.36-.52,5,3.43,8.21-.88,8.21-.88,2.07-3.54-4.75-5.38S240.83,108.43,240.83,108.43Z" transform="translate(-25.95 -10.99)"/><path class="cls-3" d="M240.89,119.45l-3.21,2.71s-4.41-3.38-2-5.79S240.45,118.49,240.89,119.45Z" transform="translate(-25.95 -10.99)"/><path class="cls-3" d="M241.86,120.67l-3.27,2.78s7.86,12.27,11.95,7.13S242.32,121.75,241.86,120.67Z" transform="translate(-25.95 -10.99)"/><path class="cls-3" d="M274.55,124.18,272.86,128s-5.54-.69-4.54-3.81S273.3,123.25,274.55,124.18Z" transform="translate(-25.95 -10.99)"/><path class="cls-3" d="M276,124.67l-1.75,4s.46-.44,4.21,4.39,8.21.86,8.21.86,2.76-3-3.53-6.26S276,124.67,276,124.67Z" transform="translate(-25.95 -10.99)"/><path class="cls-3" d="M273.81,135.46l-3.71,2s-3.61-4.22-.71-6.07S273.58,134.43,273.81,135.46Z" transform="translate(-25.95 -10.99)"/><path class="cls-3" d="M274.5,136.86l-3.77,2s5.13,13.64,10.2,9.46S274.73,138,274.5,136.86Z" transform="translate(-25.95 -10.99)"/><path class="cls-3" d="M297.08,147.49,294.71,151s-5.32-1.69-3.76-4.58S296,146.36,297.08,147.49Z" transform="translate(-25.95 -10.99)"/><path class="cls-3" d="M298.46,148.25,296,151.82s.53-.34,3.33,5.09,7.92,2.33,7.92,2.33,3.27-2.48-2.33-6.79S298.46,148.25,298.46,148.25Z" transform="translate(-25.95 -10.99)"/><path class="cls-3" d="M294.29,158.46l-4,1.27s-2.78-4.81.41-6.1S294.26,157.4,294.29,158.46Z" transform="translate(-25.95 -10.99)"/><path class="cls-3" d="M294.72,160l-4.08,1.32s2.57,14.34,8.32,11.16S294.74,161.13,294.72,160Z" transform="translate(-25.95 -10.99)"/><path class="cls-3" d="M311.44,183.22l-4,1.22s-3.08-4.66-.05-5.93S311.33,181.66,311.44,183.22Z" transform="translate(-25.95 -10.99)"/><path class="cls-3" d="M312,184.67l-4.14,1.24s.63.07-.6,6.05,4.68,6.8,4.68,6.8,4.11.12,2.46-6.75S312,184.67,312,184.67Z" transform="translate(-25.95 -10.99)"/><path class="cls-3" d="M302.38,190l-3.91-1.52s.86-5.49,4.15-4.49S303,189.14,302.38,190Z" transform="translate(-25.95 -10.99)"/><path class="cls-3" d="M301.77,191.42l-4-1.54s-7,12.76-.55,13.9S301,192.34,301.77,191.42Z" transform="translate(-25.95 -10.99)"/><path class="cls-3" d="M300.94,216.86,297,215.35s.43-5.57,3.6-4.71S301.8,215.57,300.94,216.86Z" transform="translate(-25.95 -10.99)"/><path class="cls-3" d="M300.51,218.38l-4-1.56s.46.43-4.19,4.4-.46,8.25-.46,8.25,3.16,2.61,6.07-3.82S300.51,218.38,300.51,218.38Z" transform="translate(-25.95 -10.99)"/><path class="cls-3" d="M289.63,216.65l-2.15-3.6s4-3.81,6-1S290.65,216.37,289.63,216.65Z" transform="translate(-25.95 -10.99)"/><path class="cls-3" d="M288.27,217.41l-2.21-3.67s-13.38,5.77-9,10.65S287.13,217.69,288.27,217.41Z" transform="translate(-25.95 -10.99)"/><path class="cls-3" d="M241.06,246.79,239,243.12s3.89-4,5.77-1.32S242.55,246.35,241.06,246.79Z" transform="translate(-25.95 -10.99)"/><path class="cls-3" d="M239.76,247.69l-2.1-3.78s.08.63-6,.71-5.63,6-5.63,6,.77,4,7.12,1S239.76,247.69,239.76,247.69Z" transform="translate(-25.95 -10.99)"/><path class="cls-3" d="M232.5,239.4l.65-4.15s5.54-.34,5.27,3.09S233.46,239.84,232.5,239.4Z" transform="translate(-25.95 -10.99)"/><path class="cls-3" d="M231,239.12l.64-4.24s-14-4.12-13.7,2.45S229.91,238.6,231,239.12Z" transform="translate(-25.95 -10.99)"/><path class="cls-3" d="M272.48,238.33l-2.31-3.52s3.59-4.27,5.66-1.73S273.94,237.79,272.48,238.33Z" transform="translate(-25.95 -10.99)"/><path class="cls-3" d="M271.25,239.32l-2.36-3.62s.12.62-6,1.14-5.19,6.42-5.19,6.42,1,4,7.17.44S271.25,239.32,271.25,239.32Z" transform="translate(-25.95 -10.99)"/><path class="cls-3" d="M263.42,231.57l.35-4.18s5.51-.74,5.48,2.7S264.41,231.94,263.42,231.57Z" transform="translate(-25.95 -10.99)"/><path class="cls-3" d="M261.87,231.4l.34-4.28S248,224,248.72,230.54,260.78,231,261.87,231.4Z" transform="translate(-25.95 -10.99)"/><path class="cls-3" d="M209.45,254.33l-2.06-3.68s3.89-4,5.77-1.32S210.94,253.89,209.45,254.33Z" transform="translate(-25.95 -10.99)"/><path class="cls-3" d="M208.15,255.22l-2.1-3.78s.07.63-6,.71-5.63,6-5.63,6,.77,4,7.12.95S208.15,255.22,208.15,255.22Z" transform="translate(-25.95 -10.99)"/><path class="cls-3" d="M200.89,246.94l.65-4.15s5.54-.34,5.27,3.09S201.85,247.38,200.89,246.94Z" transform="translate(-25.95 -10.99)"/><path class="cls-3" d="M199.35,246.65l.65-4.24s-14-4.12-13.7,2.45S198.3,246.14,199.35,246.65Z" transform="translate(-25.95 -10.99)"/><path class="cls-3" d="M179.74,261.71l-2.3-3.53s3.61-4.26,5.67-1.71S181.2,261.17,179.74,261.71Z" transform="translate(-25.95 -10.99)"/><path class="cls-3" d="M178.51,262.68l-2.35-3.63s.11.63-6,1.12-5.21,6.4-5.21,6.4,1,4,7.16.47S178.51,262.68,178.51,262.68Z" transform="translate(-25.95 -10.99)"/><path class="cls-3" d="M170.71,254.9l.37-4.18s5.51-.71,5.46,2.73S171.7,255.28,170.71,254.9Z" transform="translate(-25.95 -10.99)"/><path class="cls-3" d="M169.16,254.72l.36-4.27s-14.22-3.18-13.5,3.36S168.07,254.28,169.16,254.72Z" transform="translate(-25.95 -10.99)"/><path class="cls-3" d="M144.82,271.15l-2.07-3.67s3.88-4,5.78-1.33S146.31,270.71,144.82,271.15Z" transform="translate(-25.95 -10.99)"/><path class="cls-3" d="M143.53,272.05l-2.11-3.78s.07.63-6,.72-5.62,6.06-5.62,6.06.77,4,7.12.93S143.53,272.05,143.53,272.05Z" transform="translate(-25.95 -10.99)"/><path class="cls-3" d="M136.25,263.78l.64-4.15s5.54-.36,5.28,3.07S137.21,264.21,136.25,263.78Z" transform="translate(-25.95 -10.99)"/><path class="cls-3" d="M134.71,263.5l.64-4.24s-14-4.09-13.69,2.48S133.66,263,134.71,263.5Z" transform="translate(-25.95 -10.99)"/><path class="cls-3" d="M115.92,275l-3.37-2.51s1.91-5.25,4.73-3.56S117.11,274,115.92,275Z" transform="translate(-25.95 -10.99)"/><path class="cls-3" d="M115.11,276.38l-3.46-2.6s.32.55-5.23,3.11-2.68,7.81-2.68,7.81,2.35,3.38,6.89-2S115.11,276.38,115.11,276.38Z" transform="translate(-25.95 -10.99)"/><path class="cls-3" d="M105.09,271.77l-1.09-4s4.92-2.57,6.07.67S106.15,271.78,105.09,271.77Z" transform="translate(-25.95 -10.99)"/><path class="cls-3" d="M103.58,272.14,102.44,268S88,269.94,90.93,275.83,102.41,272.1,103.58,272.14Z" transform="translate(-25.95 -10.99)"/><path class="cls-3" d="M91.42,291.11l-3.84-1.72s.72-5.54,3.84-4.51S92.36,289.86,91.42,291.11Z" transform="translate(-25.95 -10.99)"/><path class="cls-3" d="M90.92,292.6,87,290.82s.43.46-4.42,4.18-.91,8.2-.91,8.2,3,2.79,6.27-3.48S90.92,292.6,90.92,292.6Z" transform="translate(-25.95 -10.99)"/><path class="cls-3" d="M80.14,290.29l-2-3.71s4.24-3.59,6.07-.68S81.18,290.07,80.14,290.29Z" transform="translate(-25.95 -10.99)"/><path class="cls-3" d="M78.74,291l-2-3.79s-13.67,5-9.52,10.15S77.59,291.19,78.74,291Z" transform="translate(-25.95 -10.99)"/><path class="cls-3" d="M77.85,314.18l-4,1.4s-3.28-4.53-.31-5.92S77.68,312.63,77.85,314.18Z" transform="translate(-25.95 -10.99)"/><path class="cls-3" d="M78.51,315.61,74.43,317s.63,0-.35,6.07,5,6.58,5,6.58,4.11-.05,2.17-6.84S78.51,315.61,78.51,315.61Z" transform="translate(-25.95 -10.99)"/><path class="cls-3" d="M69.1,321.34l-4-1.36s.62-5.52,4-4.66S69.7,320.47,69.1,321.34Z" transform="translate(-25.95 -10.99)"/><path class="cls-3" d="M68.55,322.8l-4.06-1.37s-6.47,13.06.05,13.92S67.87,323.75,68.55,322.8Z" transform="translate(-25.95 -10.99)"/><path class="cls-3" d="M77.58,340.33l-3,3s-4.92-2.63-2.86-5.18S76.74,339,77.58,340.33Z" transform="translate(-25.95 -10.99)"/><path class="cls-3" d="M78.79,341.32l-3.05,3.07s.59-.25,2.35,5.6,7.36,3.75,7.36,3.75,3.67-1.85-1-7.1S78.79,341.32,78.79,341.32Z" transform="translate(-25.95 -10.99)"/><path class="cls-3" d="M72.84,350.59l-4.17.53s-1.86-5.24,1.51-5.92S73,349.55,72.84,350.59Z" transform="translate(-25.95 -10.99)"/><path class="cls-3" d="M73,352.15l-4.25.55s-.1,14.57,6.14,12.48S72.79,353.3,73,352.15Z" transform="translate(-25.95 -10.99)"/><path class="cls-3" d="M93.2,363.16l-1.61,3.89S86,366.47,87,363.33,91.94,362.26,93.2,363.16Z" transform="translate(-25.95 -10.99)"/><path class="cls-3" d="M94.71,363.63l-1.68,4s.45-.45,4.29,4.31,8.23.69,8.23.69,2.7-3.09-3.65-6.18S94.71,363.63,94.71,363.63Z" transform="translate(-25.95 -10.99)"/><path class="cls-3" d="M92.68,374.46,89,376.51s-3.7-4.14-.83-6.05S92.43,373.43,92.68,374.46Z" transform="translate(-25.95 -10.99)"/><path class="cls-3" d="M93.4,375.84,89.67,378s5.4,13.54,10.39,9.26S93.65,377,93.4,375.84Z" transform="translate(-25.95 -10.99)"/><path class="cls-3" d="M119.26,376.85l.5,4.19s-5.13,2.22-5.85-1S117.71,376.69,119.26,376.85Z" transform="translate(-25.95 -10.99)"/><path class="cls-3" d="M120.79,376.52l.5,4.3s.18-.61,5.85,1.65,7.51-3.44,7.51-3.44.84-4-6.21-3.59S120.79,376.52,120.79,376.52Z" transform="translate(-25.95 -10.99)"/><path class="cls-3" d="M124.35,387l-2.19,3.59s-5.25-1.8-3.69-4.87S123.62,386.18,124.35,387Z" transform="translate(-25.95 -10.99)"/><path class="cls-3" d="M125.65,387.8l-2.21,3.67s11.34,9.15,13.59,3S126.43,388.68,125.65,387.8Z" transform="translate(-25.95 -10.99)"/><path class="cls-3" d="M152.13,378.78l1.32,4s-4.58,3.19-5.92.19S150.58,378.93,152.13,378.78Z" transform="translate(-25.95 -10.99)"/><path class="cls-3" d="M153.57,378.15l1.35,4.11s0-.63,6.06.46,6.67-4.86,6.67-4.86,0-4.11-6.8-2.29S153.57,378.15,153.57,378.15Z" transform="translate(-25.95 -10.99)"/><path class="cls-3" d="M159.13,387.67l-1.43,3.95s-5.51-.72-4.59-4S158.26,387.06,159.13,387.67Z" transform="translate(-25.95 -10.99)"/><path class="cls-3" d="M160.58,388.24l-1.44,4s12.93,6.7,13.91.2S161.51,389,160.58,388.24Z" transform="translate(-25.95 -10.99)"/><path class="cls-3" d="M186.56,377.68l1.32,4s-4.58,3.19-5.92.2S185,377.83,186.56,377.68Z" transform="translate(-25.95 -10.99)"/><path class="cls-3" d="M188,377.05l1.34,4.11s0-.63,6.06.45,6.68-4.86,6.68-4.86,0-4.1-6.8-2.28S188,377.05,188,377.05Z" transform="translate(-25.95 -10.99)"/><path class="cls-3" d="M193.55,386.57l-1.42,3.94s-5.51-.72-4.59-4S192.69,386,193.55,386.57Z" transform="translate(-25.95 -10.99)"/><path class="cls-3" d="M195,387.14l-1.44,4s12.94,6.7,13.92.2S195.94,387.84,195,387.14Z" transform="translate(-25.95 -10.99)"/></svg>