<?xml version="1.0" encoding="utf-8"?>
<!-- Generator: Adobe Illustrator 25.0.1, SVG Export Plug-In . SVG Version: 6.00 Build 0)  -->
<svg version="1.1" id="Layer_1" xmlns="http://www.w3.org/2000/svg" xmlns:xlink="http://www.w3.org/1999/xlink" x="0px" y="0px"
	 viewBox="0 0 1440.4 800" style="enable-background:new 0 0 1440.4 800;" xml:space="preserve">
<style type="text/css">
	.st0{opacity:9.000000e-02;fill:#45A82C;}
</style>
<path class="st0" d="M85.7,355.2h10.1v87H82.8v-71.7c-2.2,1.3-4.5,2.3-6.9,3c-2.3,0.7-4.7,1.1-7.1,1.2v-12.5
	C75,361.5,80.8,359,85.7,355.2L85.7,355.2z"/>
<path class="st0" d="M70.5,645.4h8.6v85.7H68.5v-73.2c-2.1,1.5-4.4,2.6-6.8,3.4c-2.3,0.8-4.7,1.2-7.2,1.3v-10.3
	c2.9-0.4,5.7-1.2,8.3-2.2C65.6,648.9,68.2,647.3,70.5,645.4z"/>
<path class="st0" d="M239.6,766.6c-6,0.1-11.8-1.5-16.8-4.8c-4.8-3.2-8.5-8.1-11.1-14.5s-3.9-14.5-3.9-24.2c0-9.7,1.3-17.7,3.9-24.1
	c2.6-6.4,6.3-11.2,11.1-14.4c10.3-6.4,23.3-6.4,33.6,0c4.8,3.2,8.5,8,11.1,14.4s4,14.4,4,24.1c0,9.7-1.3,17.7-4,24.2
	c-2.7,6.5-6.4,11.3-11.1,14.5C251.4,765,245.5,766.7,239.6,766.6z M239.6,759.2c7.8,0,13.8-3.2,17.7-9.5c4-6.3,6-15.2,6-26.7
	c0-11.5-2-20.4-6-26.7c-4-6.3-9.9-9.5-17.7-9.5c-7.7,0-13.6,3.2-17.6,9.5c-4,6.3-6,15.2-6,26.7c0,11.5,2,20.4,6,26.7
	C226,756.1,231.8,759.2,239.6,759.2L239.6,759.2z"/>
<path class="st0" d="M177.7,579.8h4.9v82.5h-5v-76.8c-1.9,1.9-4.2,3.4-6.6,4.4c-2.3,1-4.8,1.6-7.4,1.7v-5.2c2.6-0.5,5.2-1.3,7.7-2.3
	C173.7,583.1,175.8,581.7,177.7,579.8z"/>
<path class="st0" d="M107.7,82c-4.8,0.1-9.5-1.1-13.7-3.4c-4.1-2.4-7.4-6.1-9.4-10.4c-2.3-4.7-3.4-10.6-3.4-17.7
	c0-7.1,1.1-13.1,3.4-17.8c2-4.4,5.3-8,9.4-10.4c4.2-2.3,8.9-3.5,13.8-3.4c4.8-0.1,9.4,1.1,13.6,3.4c4.1,2.4,7.4,6.1,9.4,10.4
	c2.3,4.7,3.4,10.6,3.4,17.8s-1.1,13.1-3.4,17.7c-2,4.3-5.3,8-9.4,10.4C117.2,80.9,112.5,82.1,107.7,82z M107.7,68.9
	c3.4,0,6.6-1.7,8.4-4.7c2.1-3.1,3.2-7.7,3.2-13.8s-1.1-10.7-3.2-13.9c-1.7-3-4.9-4.8-8.4-4.8c-3.5-0.1-6.8,1.7-8.6,4.8
	c-2.1,3.2-3.2,7.8-3.2,13.9s1,10.7,3.1,13.8C101,67.3,104.2,69,107.7,68.9L107.7,68.9z"/>
<path class="st0" d="M180,91.5h10.4v60.9H176v-43.6c-1.7,0.4-3.3,0.8-4.8,1c-1.5,0.2-3,0.3-4.5,0.3V96.5c2.2-0.2,4.3-0.6,6.4-1.4
	C175.6,94.2,177.9,93,180,91.5z"/>
<path class="st0" d="M166.1,544.8c-4.3,0.1-8.4-1.1-12.1-3.3c-3.6-2.4-6.5-5.9-8.1-9.9c-1.9-4.4-2.9-10-2.9-16.6
	c0-6.7,1-12.2,2.9-16.6c1.6-4,4.4-7.5,8.1-9.9c7.4-4.3,16.6-4.3,24.1,0c3.6,2.4,6.5,5.8,8.1,9.9c1.9,4.4,2.9,9.9,2.9,16.6
	c0,6.7-1,12.2-2.9,16.7c-1.6,4-4.4,7.5-8.1,9.9C174.5,543.8,170.3,544.9,166.1,544.8z M166.1,536.9c4.3,0.2,8.3-2,10.5-5.7
	c2.4-3.8,3.7-9.2,3.7-16.3c0-7.1-1.2-12.5-3.7-16.2c-3.8-5.8-11.5-7.4-17.3-3.7c-1.5,1-2.7,2.2-3.7,3.7c-2.4,3.8-3.7,9.2-3.7,16.2
	c0,7,1.2,12.4,3.7,16.3C157.8,534.9,161.8,537.1,166.1,536.9z"/>
<path class="st0" d="M123.4,444.4h5.7v56.7h-7v-48.4c-1.4,1-2.9,1.7-4.5,2.3c-1.5,0.5-3.1,0.8-4.8,0.9V449c1.9-0.3,3.7-0.8,5.5-1.5
	C120.1,446.7,121.9,445.7,123.4,444.4z"/>
<path class="st0" d="M73.8,558.7c-3.9,0.1-7.8-1-11.1-3.2c-3.4-2.4-5.9-5.7-7.3-9.6c-1.7-4.3-2.6-9.6-2.6-16c0-6.4,0.9-11.7,2.6-16
	c1.4-3.8,4-7.2,7.3-9.5c3.3-2.2,7.2-3.3,11.1-3.2c3.9-0.1,7.8,1,11.1,3.2c3.4,2.4,5.9,5.7,7.4,9.5c1.8,4.2,2.6,9.6,2.6,16
	c0,6.4-0.9,11.8-2.6,16c-1.4,3.9-4,7.2-7.4,9.6C81.6,557.6,77.7,558.7,73.8,558.7z M73.8,553.8c5.2,0,9.1-2.1,11.7-6.3
	c2.6-4.2,3.9-10.1,3.9-17.7c0-7.6-1.3-13.5-3.9-17.6C82.9,508,79,506,73.8,506c-4.7-0.2-9.2,2.2-11.6,6.2c-2.7,4.2-4,10-4,17.6
	s1.3,13.5,4,17.7C64.6,551.6,69.1,554,73.8,553.8L73.8,553.8z"/>
<path class="st0" d="M266.1,598h3.2v54.6H266v-50.8c-1.3,1.2-2.8,2.2-4.4,2.9c-1.6,0.7-3.2,1-4.9,1.1v-3.4c1.8-0.3,3.5-0.8,5.1-1.5
	C263.4,600.2,264.9,599.2,266.1,598z"/>
<path class="st0" d="M115.9,158.8h10.4v60.9H112v-43.6c-1.7,0.4-3.3,0.8-4.8,1c-1.5,0.2-3,0.3-4.5,0.3v-13.7
	c2.2-0.2,4.3-0.6,6.4-1.4C111.5,161.5,113.8,160.3,115.9,158.8z"/>
<path class="st0" d="M89.7,323.2c-2.5,0-4.9-0.6-7-1.9c-2.1-1.3-3.8-3.3-4.8-5.6c-2.3-6.1-2.3-12.8,0-18.9c1-2.3,2.6-4.3,4.8-5.6
	c4.3-2.4,9.7-2.4,14,0c2.1,1.3,3.8,3.3,4.8,5.6c2.3,6.1,2.3,12.8,0,18.9c-1,2.3-2.6,4.3-4.8,5.6C94.6,322.7,92.2,323.3,89.7,323.2z
	 M89.7,317.9c2.2,0.1,4.3-1.1,5.4-3c1.3-2,1.9-4.8,1.9-8.5s-0.6-6.6-1.9-8.6c-1.9-3-5.9-3.9-8.9-2c-0.8,0.5-1.5,1.2-2,2
	c-1.3,2-1.9,4.9-1.9,8.6c0,3.7,0.7,6.6,1.9,8.5C85.4,316.8,87.5,317.9,89.7,317.9z"/>
<path class="st0" d="M226.5,512.8h3.7v32h-4.8v-26.4c-0.8,0.5-1.7,0.8-2.6,1.1c-0.8,0.3-1.7,0.4-2.6,0.4v-4.6
	C222.6,515.1,224.7,514.2,226.5,512.8L226.5,512.8z"/>
<path class="st0" d="M157.9,400.6c-2.3,0.1-4.5-0.6-6.5-1.8c-1.9-1.3-3.4-3.2-4.3-5.4c-2.1-5.9-2.1-12.3,0-18.1
	c2.3-5.9,9-8.9,14.9-6.6c3,1.2,5.4,3.6,6.6,6.6c2.1,5.9,2.1,12.3,0,18.1C167,397.9,162.6,400.8,157.9,400.6z M157.9,397
	c2.5,0.1,4.9-1.2,6.1-3.3c1.4-2.2,2.1-5.3,2.1-9.4c0-4.1-0.7-7.2-2.1-9.4c-2.2-3.4-6.8-4.3-10.2-2.1c-0.8,0.5-1.6,1.3-2.1,2.1
	c-1.4,2.2-2.1,5.3-2.1,9.4c0,4.1,0.7,7.2,2.1,9.4C153,395.8,155.4,397.1,157.9,397z"/>
<path class="st0" d="M126.4,713.3h3.2v31.5h-3.9v-26.9c-0.8,0.5-1.6,1-2.5,1.3c-0.9,0.3-1.7,0.5-2.6,0.5v-3.8c1-0.1,2.1-0.4,3.1-0.8
	C124.6,714.6,125.5,714,126.4,713.3z"/>
<path class="st0" d="M192.3,246.1c-2.2,0.1-4.3-0.6-6.2-1.8c-1.9-1.3-3.3-3.2-4.1-5.3c-1.9-5.8-1.9-12,0-17.8c0.8-2.1,2.2-4,4.1-5.3
	c3.8-2.3,8.6-2.3,12.4,0c1.9,1.3,3.3,3.2,4.1,5.3c1.9,5.8,1.9,12,0,17.8c-0.8,2.1-2.2,4-4.1,5.3
	C196.6,245.6,194.5,246.2,192.3,246.1z M192.3,243.4c2.6,0.1,5.1-1.2,6.5-3.5c1.5-2.3,2.2-5.6,2.2-9.8s-0.7-7.5-2.2-9.8
	c-2.4-3.6-7.2-4.6-10.8-2.2c-0.9,0.6-1.6,1.3-2.2,2.2c-1.5,2.3-2.2,5.6-2.2,9.8s0.7,7.5,2.2,9.8
	C187.2,242.2,189.7,243.5,192.3,243.4z"/>
<path class="st0" d="M34.5,19.3h1.8v30.3h-1.8V21.4c-0.7,0.7-1.5,1.2-2.4,1.6c-0.9,0.4-1.8,0.6-2.7,0.6v-1.9c1-0.2,1.9-0.5,2.8-0.9
	C33,20.5,33.8,20,34.5,19.3z"/>
<path class="st0" d="M213.2,302.2h3.5v20.3h-4.8V308c-0.6,0.1-1.1,0.2-1.6,0.3c-0.5,0.1-1,0.1-1.5,0.1v-4.6c0.7-0.1,1.4-0.2,2.1-0.5
	C211.7,303.1,212.5,302.7,213.2,302.2z"/>
<path class="st0" d="M27.9,779.5c-1.5,0-2.9-0.4-4.2-1.1c-1.3-0.8-2.3-2-2.9-3.4c-1.4-3.7-1.4-7.7,0-11.4c0.6-1.4,1.6-2.6,2.9-3.3
	c1.3-0.8,2.7-1.1,4.2-1.1c1.5,0,2.9,0.3,4.2,1.1c1.3,0.8,2.3,2,2.9,3.3c1.4,3.7,1.4,7.7,0,11.4c-0.6,1.4-1.6,2.6-2.9,3.4
	C30.8,779.1,29.3,779.5,27.9,779.5z M27.9,776.3c1.3,0,2.6-0.6,3.3-1.8c1.5-3.2,1.5-7,0-10.3c-1.2-1.8-3.6-2.3-5.4-1.2
	c-0.5,0.3-0.9,0.7-1.2,1.2c-1.5,3.2-1.5,7,0,10.3C25.3,775.6,26.5,776.3,27.9,776.3z"/>
<path class="st0" d="M221.8,423h2.2v19.2h-2.9v-15.8c-0.5,0.3-1,0.5-1.5,0.7c-0.5,0.2-1,0.2-1.6,0.3v-2.8c0.6-0.1,1.3-0.2,1.9-0.5
	C220.6,423.8,221.2,423.4,221.8,423z"/>
<path class="st0" d="M167.3,323.6c-1.4,0-2.8-0.3-4-1.1c-1.2-0.8-2.2-1.9-2.7-3.3c-1.3-3.6-1.3-7.5,0-11.1c0.5-1.3,1.5-2.5,2.7-3.3
	c2.5-1.4,5.5-1.4,8,0c1.2,0.8,2.2,1.9,2.7,3.3c1.3,3.6,1.3,7.5,0,11.1c-0.5,1.3-1.5,2.5-2.7,3.3
	C170.1,323.3,168.7,323.7,167.3,323.6z M167.3,321c1.4,0,2.8-0.7,3.5-1.9c1.6-3.4,1.6-7.4,0-10.8c-1.3-1.9-3.9-2.5-5.8-1.2
	c-0.5,0.3-0.9,0.7-1.2,1.2c-1.6,3.4-1.6,7.4,0,10.8C164.5,320.3,165.9,321,167.3,321L167.3,321z"/>
<path class="st0" d="M143.7,283.3h1.9v18.9h-2.3v-16.1c-0.5,0.3-1,0.6-1.5,0.8c-0.5,0.2-1,0.3-1.6,0.3v-2.3c0.6-0.1,1.2-0.3,1.8-0.5
	C142.6,284.1,143.2,283.8,143.7,283.3z"/>
<path class="st0" d="M56.6,135.8c-1.3,0-2.6-0.3-3.7-1.1c-1.1-0.8-2-1.9-2.5-3.2c-0.6-1.7-0.9-3.5-0.9-5.3c-0.1-1.8,0.2-3.6,0.9-5.3
	c0.5-1.3,1.3-2.4,2.5-3.2c2.3-1.4,5.1-1.4,7.4,0c1.1,0.8,2,1.9,2.5,3.2c0.6,1.7,0.9,3.5,0.9,5.3c0.1,1.8-0.2,3.6-0.9,5.3
	c-0.5,1.3-1.3,2.4-2.5,3.2C59.2,135.5,57.9,135.9,56.6,135.8z M56.6,134.2c1.6,0.1,3.1-0.7,3.9-2.1c1.7-3.7,1.7-8,0-11.8
	c-1.4-2.2-4.4-2.7-6.5-1.3c-0.5,0.3-0.9,0.8-1.3,1.3c-1.8,3.7-1.8,8,0,11.8C53.5,133.5,55,134.3,56.6,134.2z"/>
<path class="st0" d="M171.5,423.8h1.1V442h-1.1v-16.9c-0.4,0.4-0.9,0.8-1.5,1c-0.5,0.2-1.1,0.4-1.6,0.4v-1.2
	c0.6-0.1,1.2-0.3,1.7-0.5C170.6,424.6,171.1,424.2,171.5,423.8z"/>
<path class="st0" d="M365.5,171.1h8.6v85.7h-10.6v-73.2c-2.1,1.5-4.4,2.6-6.8,3.4c-2.3,0.8-4.7,1.2-7.2,1.3V178
	c2.9-0.4,5.7-1.2,8.3-2.2C360.6,174.6,363.2,173,365.5,171.1z"/>
<path class="st0" d="M534.6,292.3c-6,0.1-11.8-1.5-16.8-4.8c-4.7-3.2-8.4-8.1-11.1-14.5c-2.6-6.5-4-14.5-3.9-24.2
	c0-9.7,1.3-17.7,3.9-24.1c2.6-6.4,6.3-11.2,11.1-14.4c10.3-6.4,23.3-6.4,33.6,0c4.8,3.2,8.5,8,11.1,14.4s4,14.4,4,24.1
	c0,9.7-1.3,17.7-4,24.2c-2.7,6.5-6.4,11.3-11.1,14.5C546.4,290.7,540.5,292.4,534.6,292.3z M534.6,284.9c7.8,0,13.7-3.2,17.7-9.5
	c4-6.3,6-15.2,5.9-26.7c0-11.5-2-20.4-5.9-26.7c-4-6.3-9.9-9.5-17.7-9.4c-7.7,0-13.6,3.1-17.6,9.4s-6,15.2-6,26.7
	c0,11.5,2,20.4,6,26.7S526.9,284.9,534.6,284.9z"/>
<path class="st0" d="M472.7,105.5h4.9V188h-5v-76.8c-1.9,1.9-4.2,3.4-6.6,4.4c-2.3,1-4.8,1.6-7.4,1.7v-5.2c2.7-0.5,5.2-1.3,7.7-2.3
	C468.7,108.8,470.8,107.4,472.7,105.5z"/>
<path class="st0" d="M461.1,70.5c-4.3,0.1-8.5-1.1-12.1-3.3c-3.6-2.4-6.5-5.9-8.1-9.9c-1.9-4.4-2.9-10-2.9-16.6s1-12.2,2.9-16.6
	c1.6-4,4.5-7.5,8.1-9.9c7.4-4.3,16.6-4.3,24.1,0c3.6,2.4,6.5,5.8,8.1,9.9c1.9,4.4,2.9,9.9,2.9,16.6c0,6.7-1,12.2-2.9,16.7
	c-1.6,4-4.4,7.5-8.1,9.9C469.5,69.5,465.3,70.6,461.1,70.5z M461.1,62.6c4.3,0.2,8.3-2,10.5-5.6c2.4-3.8,3.7-9.2,3.7-16.3
	s-1.2-12.5-3.7-16.2c-3.8-5.8-11.5-7.4-17.3-3.7c-1.5,1-2.7,2.2-3.7,3.7c-2.5,3.8-3.7,9.2-3.7,16.2s1.2,12.4,3.7,16.3
	C452.8,60.7,456.8,62.8,461.1,62.6z"/>
<path class="st0" d="M368.8,84.4c-3.9,0.1-7.8-1-11.1-3.2c-3.4-2.4-5.9-5.7-7.3-9.6c-1.7-4.3-2.6-9.6-2.6-16s0.9-11.7,2.6-16
	c1.4-3.8,4-7.2,7.3-9.5c6.8-4.2,15.4-4.2,22.2,0c3.4,2.4,5.9,5.7,7.4,9.5c1.8,4.2,2.6,9.6,2.6,16s-0.9,11.8-2.6,16
	c-1.4,3.9-4,7.2-7.4,9.6C376.6,83.3,372.7,84.5,368.8,84.4z M368.8,79.5c5.2,0,9.1-2.1,11.7-6.3s3.9-10.1,3.9-17.7
	c0-7.6-1.3-13.5-3.9-17.6c-2.6-4.2-6.5-6.3-11.7-6.3c-4.7-0.2-9.2,2.2-11.6,6.2c-2.7,4.2-4,10.1-4,17.6c0,7.6,1.3,13.5,4,17.7
	C359.6,77.3,364.1,79.7,368.8,79.5z"/>
<path class="st0" d="M561.1,123.7h3.2v54.6H561v-50.8c-1.3,1.2-2.7,2.2-4.4,2.9c-1.6,0.7-3.2,1-4.9,1.1v-3.4
	c1.8-0.3,3.5-0.8,5.1-1.6C558.4,125.9,559.9,124.9,561.1,123.7z"/>
<path class="st0" d="M521.5,38.5h3.7v32h-4.8V44.1c-0.8,0.5-1.7,0.8-2.5,1.1c-0.8,0.3-1.7,0.4-2.6,0.4V41c1.1-0.1,2.1-0.4,3.2-0.8
	C519.6,39.8,520.6,39.2,521.5,38.5z"/>
<path class="st0" d="M637.2,63.8c-2.3,0.1-4.5-0.6-6.5-1.8c-1.9-1.3-3.4-3.2-4.3-5.4c-1.1-2.9-1.6-6-1.5-9.1
	c-0.1-3.1,0.4-6.2,1.5-9.1c2.3-5.9,9-8.9,15-6.6c3,1.2,5.4,3.6,6.6,6.6c1.1,2.9,1.6,6,1.5,9.1c0.1,3.1-0.4,6.2-1.5,9.1
	C646.3,61,641.9,64,637.2,63.8z M637.2,60.2c2.5,0.1,4.9-1.2,6.2-3.3c1.4-2.2,2.1-5.3,2.1-9.4s-0.7-7.2-2.1-9.4
	c-2.2-3.4-6.8-4.3-10.2-2.1c-0.8,0.6-1.6,1.3-2.1,2.1c-1.4,2.2-2.1,5.3-2.1,9.4s0.7,7.2,2.1,9.4C632.3,59,634.7,60.3,637.2,60.2z"/>
<path class="st0" d="M421.4,239h3.1v31.5h-3.9v-26.9c-0.8,0.5-1.6,1-2.5,1.3c-0.9,0.3-1.7,0.5-2.6,0.5v-3.8c1-0.2,2.1-0.4,3.1-0.8
	C419.6,240.3,420.5,239.7,421.4,239z"/>
<path class="st0" d="M322.9,305.2c-1.5,0-2.9-0.4-4.2-1.1c-1.3-0.8-2.3-2-2.9-3.4c-1.4-3.7-1.4-7.7,0-11.4c0.6-1.4,1.6-2.6,2.9-3.4
	c2.6-1.5,5.8-1.5,8.4,0c1.3,0.8,2.3,2,2.9,3.4c1.4,3.7,1.4,7.7,0,11.4c-0.6,1.4-1.6,2.6-2.9,3.4
	C325.8,304.8,324.4,305.2,322.9,305.2z M322.9,302c1.3,0,2.6-0.6,3.3-1.8c1.5-3.2,1.5-7,0-10.3c-1.2-1.8-3.6-2.3-5.4-1.2
	c-0.5,0.3-0.9,0.7-1.2,1.2c-1.5,3.2-1.5,7,0,10.3C320.3,301.3,321.6,302,322.9,302L322.9,302z"/>
<path class="st0" d="M701.1,86.2h2.2v19.2h-2.8V89.5c-0.5,0.3-1,0.5-1.5,0.7c-0.5,0.1-1,0.2-1.6,0.3v-2.8
	C698.7,87.5,700,87,701.1,86.2L701.1,86.2z"/>
<path class="st0" d="M650.8,87h1.1v18.2h-1.1V88.3c-0.4,0.4-0.9,0.8-1.5,1c-0.5,0.2-1.1,0.3-1.6,0.4v-1.2c0.6-0.1,1.2-0.3,1.7-0.5
	C649.9,87.7,650.4,87.4,650.8,87z"/>
<path class="st0" d="M563.7,364.5h15.8v92.1h-21.8v-65.9c-2.6,0.7-5,1.2-7.2,1.5c-2.2,0.4-4.5,0.5-6.8,0.5v-20.7
	c3.3-0.3,6.6-1,9.7-2.1C557,368.5,560.5,366.6,563.7,364.5z"/>
<path class="st0" d="M371.3,681.3c-6.7,0.2-13.4-1.6-19.1-5c-5.5-3.3-9.8-8.4-12.9-15.2c-3.1-6.8-4.7-15.4-4.7-25.7
	c0-10.4,1.6-19,4.7-25.8c3.1-6.8,7.4-11.9,12.9-15.2c11.8-6.7,26.3-6.7,38.1,0c5.5,3.3,9.8,8.4,12.9,15.2c3.1,6.8,4.7,15.4,4.7,25.8
	c0,10.3-1.6,18.9-4.7,25.7s-7.4,11.9-12.9,15.2C384.5,679.8,377.9,681.5,371.3,681.3z M371.3,666.7c6,0.2,11.6-2.9,14.7-8.1
	c3.5-5.4,5.2-13.1,5.2-23.2s-1.7-17.9-5.2-23.3c-5.2-8.2-16.1-10.6-24.2-5.4c-2.2,1.4-4,3.2-5.4,5.4c-3.5,5.4-5.3,13.2-5.3,23.3
	c0,10.1,1.8,17.9,5.3,23.2C359.5,663.8,365.2,666.9,371.3,666.7z"/>
<path class="st0" d="M467.6,489c-4.8,0.1-9.5-1.1-13.8-3.4c-4.1-2.4-7.4-6.1-9.4-10.4c-2.3-4.7-3.4-10.6-3.4-17.7
	c0-7.1,1.1-13.1,3.4-17.8c2-4.4,5.3-8,9.4-10.4c4.2-2.3,8.9-3.5,13.8-3.4c4.8-0.1,9.4,1.1,13.6,3.4c4.1,2.4,7.4,6.1,9.4,10.4
	c2.3,4.7,3.4,10.6,3.4,17.8c0,7.2-1.1,13.1-3.4,17.7c-2,4.3-5.3,8-9.4,10.4C477.1,487.9,472.4,489.1,467.6,489z M467.6,475.9
	c3.4,0,6.6-1.8,8.4-4.7c2.1-3.1,3.1-7.7,3.1-13.8s-1.1-10.7-3.1-13.9c-1.7-3-4.9-4.8-8.4-4.8c-3.5-0.1-6.8,1.7-8.6,4.8
	c-2.1,3.2-3.1,7.8-3.1,13.9c0,6.1,1,10.7,3.1,13.8C460.9,474.2,464.2,475.9,467.6,475.9L467.6,475.9z"/>
<path class="st0" d="M539.8,498.4h10.4v60.9h-14.4v-43.6c-1.7,0.4-3.3,0.8-4.8,1c-1.5,0.2-3,0.4-4.5,0.3v-13.7
	c2.2-0.2,4.3-0.6,6.4-1.4C535.4,501.1,537.7,499.9,539.8,498.4z"/>
<path class="st0" d="M475.8,565.8h10.4v60.9h-14.4v-43.6c-1.7,0.4-3.3,0.8-4.8,1c-1.5,0.2-3,0.3-4.5,0.3v-13.7
	c2.2-0.2,4.3-0.6,6.4-1.4C471.4,568.4,473.7,567.2,475.8,565.8z"/>
<path class="st0" d="M449.6,730.2c-2.5,0-4.9-0.6-7-1.8c-2.1-1.3-3.8-3.3-4.8-5.6c-2.3-6.1-2.3-12.8,0-18.9c1-2.3,2.6-4.3,4.8-5.6
	c4.3-2.4,9.7-2.4,14,0c2.1,1.3,3.8,3.3,4.8,5.6c2.3,6.1,2.3,12.8,0,18.9c-1,2.3-2.6,4.3-4.8,5.6
	C454.5,729.6,452.1,730.2,449.6,730.2z M449.6,724.8c2.2,0.1,4.3-1.1,5.4-3c1.3-2,1.9-4.8,1.9-8.5s-0.6-6.6-1.9-8.6
	c-1.9-3-5.9-3.9-8.9-2c-0.8,0.5-1.5,1.2-2,2c-1.3,2-1.9,4.8-1.9,8.6s0.6,6.6,1.9,8.5C445.3,723.7,447.4,724.8,449.6,724.8
	L449.6,724.8z"/>
<path class="st0" d="M552.2,653c-2.2,0.1-4.3-0.6-6.2-1.8c-1.9-1.3-3.3-3.2-4.1-5.3c-1.9-5.8-1.9-12,0-17.8c0.8-2.1,2.2-4,4.1-5.3
	c3.8-2.3,8.6-2.3,12.3,0c1.9,1.3,3.3,3.2,4.1,5.3c2,5.8,2,12,0,17.8c-0.8,2.1-2.2,4-4.1,5.3C556.5,652.4,554.4,653.1,552.2,653z
	 M552.2,650.3c2.6,0.1,5.1-1.2,6.5-3.5c1.5-2.3,2.2-5.6,2.2-9.8s-0.7-7.5-2.2-9.8c-2.4-3.6-7.2-4.6-10.8-2.2
	c-0.9,0.6-1.6,1.3-2.2,2.2c-1.5,2.3-2.2,5.6-2.2,9.8s0.7,7.5,2.2,9.8C547,649.1,549.5,650.5,552.2,650.3L552.2,650.3z"/>
<path class="st0" d="M394.4,426.2h1.8v30.3h-1.9v-28.2c-0.7,0.7-1.5,1.2-2.4,1.6c-0.9,0.4-1.8,0.6-2.7,0.6v-1.9
	c1-0.2,1.9-0.5,2.8-0.9C392.9,427.4,393.7,426.9,394.4,426.2z"/>
<path class="st0" d="M573.1,709.2h3.5v20.3h-4.8v-14.5c-0.5,0.1-1.1,0.2-1.6,0.3c-0.5,0.1-1,0.1-1.5,0.1v-4.6
	c0.7-0.1,1.5-0.2,2.1-0.5C571.6,710,572.4,709.6,573.1,709.2z"/>
<path class="st0" d="M527.2,730.6c-1.4,0-2.8-0.4-4-1.1c-1.2-0.8-2.1-1.9-2.7-3.3c-1.3-3.6-1.3-7.5,0-11.1c0.5-1.3,1.5-2.5,2.7-3.3
	c1.2-0.7,2.6-1.1,4-1.1c1.4,0,2.8,0.3,4,1.1c1.2,0.8,2.2,1.9,2.7,3.3c1.3,3.6,1.3,7.5,0,11.1C532.8,728.9,530.1,730.7,527.2,730.6
	L527.2,730.6z M527.2,727.9c1.4,0,2.8-0.7,3.5-1.9c1.6-3.4,1.6-7.4,0-10.8c-1.2-1.9-3.8-2.5-5.7-1.3c-0.5,0.3-0.9,0.7-1.3,1.3
	c-1.6,3.4-1.6,7.4,0,10.8C524.4,727.3,525.8,728,527.2,727.9z"/>
<path class="st0" d="M503.6,690.3h1.9v18.9h-2.3V693c-0.5,0.3-1,0.6-1.5,0.8c-0.5,0.2-1,0.3-1.6,0.3v-2.3c0.6-0.1,1.3-0.3,1.8-0.5
	C502.5,691,503.1,690.7,503.6,690.3z"/>
<path class="st0" d="M416.5,542.8c-1.3,0-2.6-0.3-3.7-1.1c-1.1-0.8-2-1.9-2.4-3.2c-1.2-3.5-1.2-7.2,0-10.7c0.5-1.3,1.3-2.4,2.4-3.2
	c2.3-1.4,5.1-1.4,7.4,0c1.1,0.8,2,1.9,2.5,3.2c1.2,3.5,1.2,7.2,0,10.7c-0.5,1.3-1.3,2.4-2.5,3.2
	C419.1,542.4,417.8,542.8,416.5,542.8z M416.5,541.1c1.6,0.1,3.1-0.7,3.9-2.1c1.7-3.7,1.7-8,0-11.8c-1.4-2.2-4.4-2.7-6.5-1.3
	c-0.5,0.3-0.9,0.8-1.3,1.3c-1.8,3.7-1.8,8,0,11.8C413.4,540.4,414.9,541.2,416.5,541.1z"/>
<path class="st0" d="M913.5,6.4h15.8v92.1h-21.8V32.6c-2.6,0.6-5,1.1-7.2,1.5c-2.2,0.4-4.5,0.5-6.8,0.5V13.9c3.3-0.3,6.6-1,9.7-2.1
	C906.8,10.4,910.2,8.6,913.5,6.4z"/>
<path class="st0" d="M721,323.3c-6.7,0.2-13.4-1.6-19.1-5c-5.5-3.3-9.8-8.4-12.9-15.2s-4.7-15.4-4.7-25.7c0-10.4,1.5-19,4.7-25.8
	c3.1-6.8,7.4-11.9,12.9-15.2c11.8-6.7,26.3-6.7,38.1,0c5.5,3.3,9.8,8.4,12.9,15.2c3.1,6.8,4.7,15.4,4.7,25.8
	c0,10.3-1.6,18.9-4.7,25.7s-7.4,11.9-12.9,15.2C734.3,321.7,727.7,323.5,721,323.3z M721,308.6c6,0.2,11.7-2.9,14.8-8.1
	c3.5-5.4,5.2-13.1,5.2-23.2s-1.7-17.9-5.2-23.3c-5.2-8.2-16.1-10.6-24.2-5.4c-2.2,1.4-4,3.2-5.4,5.4c-3.5,5.4-5.3,13.2-5.3,23.3
	s1.8,17.8,5.3,23.2C709.3,305.8,715,308.8,721,308.6L721,308.6z"/>
<path class="st0" d="M795.3,404.1h10.1v87h-12.9v-71.7c-2.2,1.3-4.5,2.3-6.9,3c-2.3,0.7-4.7,1.1-7.1,1.2v-12.5
	c3-0.4,5.8-1.1,8.6-2.2C790,407.7,792.8,406.1,795.3,404.1z"/>
<path class="st0" d="M780.2,694.3h8.6V780h-10.6v-73.2c-2.1,1.5-4.4,2.6-6.8,3.4c-2.3,0.8-4.7,1.2-7.2,1.3v-10.3
	c2.9-0.4,5.7-1.2,8.3-2.2C775.3,697.8,777.9,696.3,780.2,694.3z"/>
<path class="st0" d="M887.3,628.7h4.9v82.5h-5v-76.8c-1.9,1.9-4.2,3.4-6.6,4.4c-2.3,1-4.8,1.6-7.4,1.7v-5.2c2.7-0.5,5.2-1.3,7.7-2.3
	C883.3,632,885.5,630.6,887.3,628.7z"/>
<path class="st0" d="M817.4,130.9c-4.8,0.1-9.5-1.1-13.8-3.4c-4.1-2.4-7.4-6.1-9.4-10.4c-2.3-4.7-3.4-10.6-3.4-17.7
	s1.1-13.1,3.4-17.8c2-4.4,5.3-8,9.4-10.4c4.2-2.3,8.9-3.5,13.8-3.4c4.7-0.1,9.4,1.1,13.6,3.4c4.1,2.4,7.4,6.1,9.4,10.4
	c2.3,4.7,3.4,10.6,3.4,17.8c0,7.2-1.1,13.1-3.4,17.7c-2,4.3-5.3,8-9.4,10.4C826.9,129.8,822.2,131,817.4,130.9z M817.4,117.8
	c3.4,0,6.6-1.7,8.4-4.7c2.1-3.1,3.2-7.7,3.2-13.8c0-6.1-1.1-10.7-3.2-13.9c-1.7-3-4.9-4.8-8.4-4.8c-3.5-0.1-6.8,1.7-8.6,4.8
	c-2.1,3.2-3.1,7.8-3.1,13.9c0,6.1,1.1,10.7,3.1,13.8C810.7,116.2,813.9,117.9,817.4,117.8z"/>
<path class="st0" d="M889.6,140.4h10.4v60.9h-14.4v-43.6c-1.7,0.4-3.3,0.8-4.8,1c-1.5,0.2-3,0.3-4.5,0.3v-13.7
	c2.2-0.2,4.3-0.7,6.4-1.4C885.2,143.1,887.5,141.9,889.6,140.4z"/>
<path class="st0" d="M875.7,593.7c-4.3,0.1-8.5-1-12.1-3.3c-3.6-2.4-6.5-5.9-8.1-9.9c-1.9-4.4-2.9-10-2.9-16.7s1-12.2,2.9-16.6
	c1.6-4,4.4-7.5,8.1-9.8c7.4-4.3,16.6-4.3,24.1,0c3.6,2.4,6.5,5.8,8.1,9.8c1.9,4.4,2.9,10,2.9,16.6c0,6.7-1,12.2-2.9,16.7
	c-1.6,4-4.4,7.5-8.1,9.9C884.1,592.7,880,593.8,875.7,593.7z M875.7,585.8c4.3,0.2,8.3-2,10.5-5.7c2.4-3.8,3.7-9.2,3.7-16.3
	c0-7-1.2-12.5-3.7-16.2c-3.8-5.8-11.5-7.4-17.3-3.7c-1.5,1-2.7,2.2-3.7,3.7c-2.4,3.8-3.7,9.2-3.7,16.2c0,7,1.2,12.4,3.7,16.3
	C867.5,583.8,871.5,586,875.7,585.8z"/>
<path class="st0" d="M833.1,493.3h5.7V550h-7v-48.4c-1.4,1-2.9,1.7-4.5,2.3c-1.5,0.5-3.1,0.8-4.8,0.9v-6.8c1.9-0.3,3.7-0.8,5.5-1.5
	C829.8,495.6,831.5,494.6,833.1,493.3z"/>
<path class="st0" d="M783.5,607.6c-3.9,0.1-7.8-1-11.1-3.2c-3.4-2.4-5.9-5.7-7.3-9.6c-1.7-4.3-2.6-9.6-2.6-16c0-6.4,0.9-11.7,2.6-16
	c1.4-3.8,4-7.2,7.3-9.5c6.8-4.2,15.4-4.2,22.2,0c3.3,2.4,5.9,5.7,7.3,9.5c1.8,4.3,2.6,9.6,2.6,16s-0.9,11.7-2.6,16
	c-1.4,3.9-4,7.2-7.3,9.6C791.3,606.5,787.4,607.7,783.5,607.6z M783.5,602.7c5.2,0,9.1-2.1,11.7-6.3c2.6-4.2,3.9-10.1,3.9-17.7
	c0-7.6-1.3-13.5-3.9-17.6c-2.6-4.2-6.5-6.3-11.7-6.3c-4.7-0.2-9.2,2.2-11.6,6.3c-2.7,4.2-4,10-4,17.6s1.3,13.5,4,17.7
	C774.3,600.5,778.7,602.9,783.5,602.7z"/>
<path class="st0" d="M975.8,646.9h3.2v54.6h-3.3v-50.8c-1.3,1.2-2.7,2.2-4.4,2.9c-1.6,0.7-3.2,1-4.9,1.2v-3.4
	c1.8-0.3,3.5-0.8,5.1-1.6C973.1,649.1,974.6,648.1,975.8,646.9z"/>
<path class="st0" d="M825.6,207.8H836v60.9h-14.4v-43.6c-1.7,0.4-3.3,0.8-4.8,1c-1.5,0.2-3,0.3-4.5,0.3v-13.7
	c2.2-0.2,4.3-0.7,6.4-1.4C821.2,210.4,823.5,209.2,825.6,207.8z"/>
<path class="st0" d="M799.4,372.2c-2.5,0-4.9-0.6-7-1.9c-2.1-1.3-3.8-3.3-4.8-5.6c-2.3-6.1-2.3-12.8,0-18.9c1-2.3,2.6-4.3,4.8-5.6
	c4.3-2.4,9.7-2.4,14,0c2.1,1.3,3.8,3.3,4.8,5.6c2.3,6.1,2.3,12.8,0,18.9c-1,2.3-2.6,4.3-4.8,5.6
	C804.3,371.6,801.9,372.2,799.4,372.2z M799.4,366.8c2.2,0.1,4.3-1.1,5.4-3c1.3-2,1.9-4.8,1.9-8.5c0-3.7-0.6-6.6-1.9-8.6
	c-1.9-3-5.9-3.9-8.9-2c-0.8,0.5-1.5,1.2-2,2c-1.3,2-1.9,4.9-1.9,8.6s0.7,6.6,1.9,8.5C795.1,365.7,797.2,366.8,799.4,366.8z"/>
<path class="st0" d="M936.2,561.7h3.7v32h-4.8v-26.4c-0.8,0.5-1.7,0.8-2.5,1.1c-0.8,0.3-1.7,0.4-2.6,0.4v-4.6
	c1.1-0.1,2.1-0.4,3.2-0.8C934.2,563,935.3,562.4,936.2,561.7z"/>
<path class="st0" d="M867.5,449.5c-4.8,0.2-9.1-2.7-10.8-7.2c-2.1-5.9-2.1-12.3,0-18.1c1.7-4.5,6-7.3,10.8-7.1
	c2.3,0,4.5,0.6,6.5,1.8c2,1.3,3.5,3.2,4.3,5.4c2.1,5.9,2.1,12.3,0,18.1C876.7,446.8,872.3,449.7,867.5,449.5L867.5,449.5z
	 M867.5,445.9c2.5,0.1,4.9-1.2,6.2-3.3c1.4-2.2,2.1-5.3,2.1-9.4s-0.7-7.2-2.1-9.4c-2.2-3.4-6.8-4.3-10.2-2.1
	c-0.8,0.6-1.6,1.3-2.1,2.1c-1.4,2.2-2.1,5.3-2.1,9.4c0,4.1,0.7,7.2,2.1,9.4C862.7,444.7,865.1,446,867.5,445.9z"/>
<path class="st0" d="M836.1,762.2h3.2v31.5h-3.9v-26.9c-0.8,0.5-1.6,0.9-2.5,1.2c-0.9,0.3-1.7,0.4-2.6,0.5v-3.8
	c1-0.1,2.1-0.4,3.1-0.8C834.2,763.4,835.2,762.9,836.1,762.2z"/>
<path class="st0" d="M902,295c-2.2,0.1-4.3-0.6-6.2-1.8c-1.9-1.3-3.3-3.2-4.1-5.3c-1-2.8-1.5-5.9-1.5-8.9c-0.1-3,0.4-6,1.5-8.9
	c0.8-2.1,2.2-4,4.1-5.3c3.8-2.4,8.6-2.4,12.3,0c1.9,1.3,3.3,3.2,4.1,5.3c1,2.8,1.5,5.8,1.4,8.9c0.1,3-0.4,6-1.5,8.9
	c-0.8,2.1-2.2,4-4.1,5.3C906.3,294.4,904.2,295,902,295z M902,292.3c2.7,0.1,5.2-1.2,6.5-3.5c1.5-2.3,2.2-5.6,2.2-9.8
	s-0.7-7.5-2.2-9.8c-2.4-3.6-7.2-4.6-10.8-2.2c-0.9,0.6-1.6,1.3-2.2,2.2c-1.5,2.3-2.2,5.6-2.2,9.8c0,4.2,0.7,7.5,2.2,9.8
	C896.9,291.1,899.4,292.4,902,292.3L902,292.3z"/>
<path class="st0" d="M744.1,68.2h1.8v30.3h-1.8V70.3c-0.7,0.7-1.5,1.2-2.4,1.6c-0.9,0.4-1.8,0.6-2.7,0.6v-1.9c1-0.2,1.9-0.5,2.8-0.9
	C742.7,69.4,743.5,68.9,744.1,68.2z"/>
<path class="st0" d="M922.9,351.1h3.5v20.3h-4.8v-14.5c-0.6,0.1-1.1,0.2-1.6,0.3c-0.5,0.1-1,0.1-1.5,0.1v-4.6
	c0.7-0.1,1.4-0.2,2.1-0.5C921.4,352,922.2,351.6,922.9,351.1z"/>
<path class="st0" d="M931.5,471.9h2.2v19.2h-2.8v-15.8c-0.5,0.3-1,0.5-1.5,0.7c-0.5,0.2-1,0.2-1.6,0.3v-2.8
	C929.1,473.3,930.4,472.7,931.5,471.9L931.5,471.9z"/>
<path class="st0" d="M877,372.5c-1.4,0-2.8-0.4-4-1.1c-1.2-0.8-2.1-2-2.7-3.3c-1.3-3.6-1.3-7.5,0-11.1c0.5-1.3,1.5-2.5,2.7-3.3
	c2.5-1.4,5.5-1.4,8,0c1.2,0.8,2.1,1.9,2.7,3.3c1.3,3.6,1.3,7.5,0,11.1c-0.5,1.3-1.5,2.5-2.7,3.3C879.8,372.2,878.4,372.6,877,372.5z
	 M877,369.9c1.4,0.1,2.8-0.7,3.5-1.9c1.6-3.4,1.6-7.4,0-10.8c-1.2-1.9-3.8-2.5-5.7-1.3c-0.5,0.3-0.9,0.7-1.3,1.3
	c-1.6,3.4-1.6,7.4,0,10.8C874.2,369.2,875.6,370,877,369.9L877,369.9z"/>
<path class="st0" d="M853.4,332.2h1.9v18.9h-2.3V335c-0.5,0.3-1,0.6-1.5,0.8c-0.5,0.2-1,0.3-1.6,0.3v-2.3c0.6-0.1,1.2-0.3,1.8-0.5
	C852.3,333,852.8,332.7,853.4,332.2z"/>
<path class="st0" d="M766.2,184.7c-1.3,0-2.6-0.3-3.7-1.1c-1.1-0.8-2-1.9-2.5-3.2c-1.2-3.5-1.2-7.2,0-10.6c0.5-1.3,1.3-2.4,2.5-3.2
	c2.3-1.4,5.1-1.4,7.4,0c1.1,0.8,2,1.9,2.5,3.2c1.2,3.5,1.2,7.2,0,10.6c-0.5,1.3-1.3,2.4-2.5,3.2
	C768.9,184.4,767.6,184.8,766.2,184.7z M766.2,183.1c1.6,0.1,3.1-0.7,3.9-2.1c1.7-3.7,1.7-8,0-11.8c-1.4-2.2-4.3-2.7-6.5-1.3
	c-0.5,0.3-1,0.8-1.3,1.3c-1.8,3.7-1.8,8,0,11.8C763.2,182.4,764.7,183.2,766.2,183.1L766.2,183.1z"/>
<path class="st0" d="M881.1,472.7h1.1v18.2h-1.1V474c-0.4,0.4-0.9,0.8-1.5,1c-0.5,0.2-1.1,0.3-1.6,0.4v-1.1c0.6-0.1,1.2-0.3,1.7-0.5
	C880.3,473.5,880.7,473.2,881.1,472.7z"/>
<path class="st0" d="M1086,169.4h15.8v92.1H1080v-65.9c-2.6,0.6-5,1.1-7.2,1.5c-2.2,0.4-4.5,0.5-6.8,0.5v-20.7
	c3.3-0.3,6.6-1,9.7-2.1C1079.3,173.4,1082.8,171.6,1086,169.4z"/>
<path class="st0" d="M1062.1,303.4h10.4v60.9h-14.4v-43.6c-1.7,0.4-3.3,0.8-4.8,1c-1.5,0.2-3,0.3-4.5,0.3v-13.7
	c2.2-0.2,4.3-0.7,6.4-1.4C1057.7,306.1,1060,304.9,1062.1,303.4z"/>
<path class="st0" d="M1048.2,756.7c-4.3,0.1-8.5-1-12.1-3.3c-3.6-2.4-6.5-5.9-8.1-9.9c-1.9-4.4-2.9-10-2.9-16.7
	c0-6.7,1-12.2,2.9-16.6c1.6-4,4.4-7.5,8.1-9.8c3.6-2.2,7.8-3.3,12.1-3.2c4.2-0.1,8.4,1,12,3.2c3.6,2.4,6.5,5.8,8.1,9.8
	c1.9,4.4,2.9,10,2.9,16.6c0,6.7-1,12.2-2.9,16.7c-1.6,4-4.4,7.5-8.1,9.9C1056.7,755.7,1052.5,756.8,1048.2,756.7z M1048.2,748.8
	c4.3,0.2,8.3-2,10.5-5.7c2.5-3.8,3.7-9.2,3.7-16.3c0-7-1.2-12.5-3.7-16.2c-3.8-5.8-11.5-7.4-17.3-3.7c-1.5,1-2.7,2.2-3.7,3.7
	c-2.4,3.8-3.7,9.2-3.7,16.2c0,7,1.2,12.4,3.7,16.3C1040,746.8,1044,749,1048.2,748.8z"/>
<path class="st0" d="M1108.7,724.7h3.7v32h-4.8v-26.4c-0.8,0.5-1.7,0.8-2.6,1.1c-0.8,0.3-1.7,0.4-2.6,0.4v-4.6
	c1.1-0.1,2.1-0.4,3.2-0.8C1106.8,726,1107.8,725.4,1108.7,724.7z"/>
<path class="st0" d="M1074.5,458c-2.2,0.1-4.3-0.6-6.2-1.8c-1.9-1.3-3.3-3.2-4.1-5.3c-1-2.8-1.5-5.9-1.4-8.9c-0.1-3,0.4-6,1.4-8.9
	c0.8-2.1,2.2-4,4.1-5.3c3.8-2.4,8.6-2.4,12.3,0c1.9,1.3,3.3,3.2,4.1,5.3c1.1,2.8,1.6,5.8,1.5,8.9c0.1,3-0.4,6-1.5,8.9
	c-0.8,2.1-2.2,4-4.1,5.3C1078.8,457.4,1076.7,458.1,1074.5,458z M1074.5,455.3c2.7,0.1,5.2-1.2,6.5-3.5c1.5-2.3,2.2-5.6,2.2-9.8
	s-0.7-7.5-2.2-9.8c-2.4-3.6-7.2-4.6-10.8-2.2c-0.9,0.6-1.6,1.3-2.2,2.2c-1.5,2.3-2.2,5.6-2.2,9.8s0.7,7.5,2.2,9.8
	C1069.3,454.1,1071.8,455.4,1074.5,455.3L1074.5,455.3z"/>
<path class="st0" d="M1095.4,514.1h3.5v20.3h-4.8v-14.5c-0.6,0.1-1.1,0.2-1.6,0.3c-0.5,0.1-1,0.1-1.5,0.1v-4.5
	c0.7-0.1,1.4-0.2,2.1-0.5C1093.9,515,1094.7,514.6,1095.4,514.1z"/>
<path class="st0" d="M1104,634.9h2.2v19.2h-2.8v-15.8c-0.5,0.3-1,0.5-1.5,0.7c-0.5,0.1-1,0.2-1.6,0.3v-2.8
	C1101.6,636.3,1102.9,635.7,1104,634.9L1104,634.9z"/>
<path class="st0" d="M1049.5,535.5c-1.4,0-2.8-0.4-4-1.1c-1.2-0.8-2.1-2-2.7-3.3c-1.3-3.6-1.3-7.5,0-11.1c0.5-1.3,1.5-2.5,2.7-3.3
	c1.2-0.7,2.6-1.1,4-1.1c1.4,0,2.8,0.3,4,1.1c1.2,0.8,2.2,1.9,2.7,3.3c1.3,3.6,1.3,7.5,0,11.1
	C1055.1,533.9,1052.4,535.6,1049.5,535.5L1049.5,535.5z M1049.5,532.9c1.4,0.1,2.8-0.7,3.5-1.9c1.6-3.4,1.6-7.4,0-10.8
	c-1.3-1.9-3.8-2.5-5.8-1.2c-0.5,0.3-0.9,0.7-1.2,1.2c-1.6,3.4-1.6,7.4,0,10.8C1046.7,532.2,1048,533,1049.5,532.9z"/>
<path class="st0" d="M1053.6,635.7h1.1v18.2h-1.1V637c-0.4,0.4-0.9,0.8-1.5,1c-0.5,0.2-1.1,0.3-1.6,0.4v-1.2
	c0.6-0.1,1.2-0.3,1.7-0.5C1052.8,636.5,1053.2,636.1,1053.6,635.7z"/>
<path class="st0" d="M1045.7,119.8c-6.7,0.2-13.4-1.6-19.1-5c-5.5-3.3-9.8-8.4-12.9-15.2c-3.1-6.8-4.7-15.4-4.6-25.7
	c0-10.4,1.6-19,4.7-25.8c3.1-6.8,7.4-11.9,12.9-15.2c11.8-6.7,26.3-6.7,38.2,0c5.5,3.3,9.8,8.4,12.9,15.2c3.1,6.8,4.7,15.4,4.7,25.8
	c0,10.3-1.6,18.9-4.7,25.7c-3.1,6.8-7.4,11.9-12.9,15.2C1059,118.2,1052.4,119.9,1045.7,119.8z M1045.7,105.1
	c6,0.2,11.7-2.9,14.8-8.1c3.5-5.4,5.2-13.1,5.2-23.2s-1.7-17.9-5.2-23.3c-5.2-8.2-16-10.6-24.2-5.4c-2.2,1.4-4,3.2-5.4,5.4
	c-3.5,5.4-5.3,13.2-5.3,23.3c0,10.1,1.8,17.8,5.3,23.2C1034,102.2,1039.7,105.3,1045.7,105.1z"/>
<path class="st0" d="M1262.9,92.8h10.1v87H1260v-71.7c-2.2,1.3-4.5,2.3-6.9,3c-2.3,0.7-4.7,1.1-7.1,1.2V99.8
	C1252.1,99.1,1258,96.6,1262.9,92.8L1262.9,92.8z"/>
<path class="st0" d="M1247.7,383h8.6v85.7h-10.6v-73.2c-2.1,1.5-4.4,2.6-6.8,3.4c-2.3,0.8-4.7,1.2-7.2,1.3v-10.3
	c2.9-0.4,5.7-1.2,8.3-2.2C1242.8,386.5,1245.4,385,1247.7,383z"/>
<path class="st0" d="M1354.9,317.4h4.9v82.5h-5v-76.8c-1.9,1.9-4.2,3.4-6.6,4.4c-2.3,1-4.8,1.6-7.4,1.7v-5.2
	c2.7-0.5,5.2-1.3,7.7-2.4C1350.9,320.7,1353,319.3,1354.9,317.4z"/>
<path class="st0" d="M1343.3,282.4c-4.3,0.1-8.5-1-12.1-3.3c-3.6-2.4-6.5-5.9-8.1-9.9c-1.9-4.4-2.9-10-2.9-16.6
	c0-6.7,1-12.2,2.9-16.6c1.6-4,4.4-7.5,8.1-9.9c3.6-2.2,7.8-3.3,12.1-3.2c4.2-0.1,8.4,1,12,3.2c3.6,2.4,6.5,5.8,8.1,9.9
	c1.9,4.4,2.9,9.9,2.9,16.6c0,6.7-1,12.2-2.9,16.6c-1.6,4-4.4,7.5-8.1,9.9C1351.7,281.4,1347.5,282.5,1343.3,282.4z M1343.3,274.6
	c4.3,0.2,8.3-2,10.5-5.7c2.5-3.8,3.7-9.2,3.7-16.3c0-7-1.2-12.5-3.7-16.2c-3.8-5.8-11.5-7.4-17.3-3.7c-1.5,1-2.7,2.2-3.7,3.7
	c-2.4,3.8-3.7,9.2-3.7,16.2s1.2,12.4,3.7,16.3C1335,272.5,1339,274.7,1343.3,274.6L1343.3,274.6z"/>
<path class="st0" d="M1300.6,182h5.7v56.7h-7v-48.4c-1.4,1-2.9,1.7-4.5,2.3c-1.5,0.5-3.1,0.8-4.7,0.9v-6.8c1.9-0.3,3.7-0.8,5.5-1.5
	C1297.3,184.3,1299.1,183.3,1300.6,182z"/>
<path class="st0" d="M1251,296.2c-3.9,0.1-7.8-1-11.1-3.2c-3.4-2.4-5.9-5.7-7.3-9.6c-1.7-4.3-2.6-9.6-2.6-16s0.9-11.7,2.6-15.9
	c1.4-3.8,4-7.2,7.3-9.5c6.8-4.2,15.4-4.2,22.2,0c3.4,2.4,5.9,5.7,7.4,9.5c1.8,4.3,2.6,9.6,2.6,15.9c0,6.4-0.9,11.7-2.6,16
	c-1.4,3.9-4,7.2-7.4,9.6C1258.8,295.2,1254.9,296.3,1251,296.2z M1251,291.4c5.2,0,9.1-2.1,11.7-6.3s3.9-10.1,3.9-17.7
	c0-7.6-1.3-13.5-3.9-17.6c-2.6-4.2-6.5-6.3-11.7-6.3c-4.7-0.2-9.2,2.2-11.6,6.2c-2.7,4.2-4,10-4,17.6s1.3,13.5,4,17.7
	C1241.8,289.2,1246.3,291.6,1251,291.4z"/>
<path class="st0" d="M1150.3,4.2h10.4v60.9h-14.4V21.5c-1.7,0.4-3.3,0.8-4.8,1c-1.5,0.2-3,0.3-4.5,0.3V9.2c2.2-0.2,4.3-0.6,6.4-1.4
	C1145.8,6.9,1148.1,5.7,1150.3,4.2z"/>
<path class="st0" d="M1266.9,60.8c-2.5,0-4.9-0.6-7-1.8c-2.1-1.3-3.8-3.3-4.8-5.6c-1.2-3-1.8-6.2-1.7-9.5c-0.1-3.2,0.5-6.5,1.7-9.5
	c1-2.3,2.6-4.3,4.8-5.6c4.3-2.4,9.7-2.4,14,0c2.1,1.3,3.8,3.3,4.8,5.6c1.2,3,1.8,6.2,1.7,9.5c0.1,3.2-0.5,6.5-1.7,9.5
	c-1,2.3-2.6,4.3-4.8,5.6C1271.8,60.3,1269.4,60.9,1266.9,60.8z M1266.9,55.4c2.2,0.1,4.3-1.1,5.4-3c1.3-2,1.9-4.8,1.9-8.5
	c0-3.7-0.6-6.6-1.9-8.6c-1.9-3-5.9-3.9-8.9-2c-0.8,0.5-1.5,1.2-2,2c-1.3,2-1.9,4.8-1.9,8.6s0.6,6.6,1.9,8.5
	C1262.6,54.4,1264.7,55.5,1266.9,55.4z"/>
<path class="st0" d="M1403.7,250.4h3.7v32h-4.8V256c-0.8,0.5-1.7,0.8-2.6,1.1c-0.8,0.3-1.7,0.4-2.6,0.4v-4.6
	c1.1-0.1,2.1-0.4,3.2-0.8C1401.8,251.7,1402.8,251.1,1403.7,250.4z"/>
<path class="st0" d="M1335.1,138.2c-2.3,0.1-4.5-0.6-6.5-1.8c-1.9-1.3-3.4-3.2-4.3-5.4c-1.1-2.9-1.6-6-1.5-9.1
	c-0.1-3.1,0.4-6.2,1.5-9.1c2.3-5.9,9-8.9,15-6.6c3,1.2,5.4,3.6,6.6,6.6c1.1,2.9,1.6,6,1.5,9.1c0.1,3.1-0.4,6.2-1.5,9.1
	C1344.2,135.5,1339.9,138.4,1335.1,138.2z M1335.1,134.6c2.5,0.1,4.9-1.2,6.2-3.3c1.4-2.2,2.1-5.3,2.1-9.4s-0.7-7.2-2.1-9.4
	c-2.2-3.4-6.8-4.3-10.2-2.1c-0.8,0.5-1.6,1.3-2.1,2.1c-1.4,2.2-2.1,5.3-2.1,9.4s0.7,7.2,2.1,9.4
	C1330.2,133.4,1332.6,134.7,1335.1,134.6L1335.1,134.6z"/>
<path class="st0" d="M1303.6,450.9h3.2v31.5h-3.9v-26.9c-0.8,0.5-1.6,1-2.5,1.3c-0.8,0.3-1.7,0.5-2.6,0.5v-3.8
	c1-0.1,2.1-0.4,3.1-0.8C1301.8,452.2,1302.7,451.6,1303.6,450.9z"/>
<path class="st0" d="M1390.4,39.8h3.5v20.3h-4.8V45.6c-0.6,0.1-1.1,0.2-1.6,0.3c-0.5,0.1-1,0.1-1.5,0.1v-4.6
	c0.7-0.1,1.4-0.2,2.1-0.5C1388.9,40.7,1389.7,40.3,1390.4,39.8z"/>
<path class="st0" d="M1205.1,517.1c-1.5,0-2.9-0.4-4.2-1.1c-1.3-0.8-2.3-2-2.8-3.4c-1.4-3.7-1.4-7.7,0-11.4c0.6-1.4,1.6-2.6,2.8-3.4
	c2.6-1.5,5.8-1.5,8.4,0c1.3,0.8,2.3,2,2.8,3.4c1.4,3.7,1.4,7.7,0,11.4c-0.6,1.4-1.6,2.6-2.8,3.4
	C1208,516.7,1206.6,517.1,1205.1,517.1z M1205.1,513.9c1.3,0,2.6-0.6,3.2-1.8c0.9-1.6,1.3-3.3,1.2-5.1c0.1-1.8-0.3-3.6-1.2-5.1
	c-0.7-1.1-1.9-1.8-3.2-1.8c-1.3,0-2.6,0.6-3.3,1.8c-0.9,1.6-1.3,3.4-1.2,5.1c-0.1,1.8,0.3,3.6,1.2,5.1
	C1202.5,513.2,1203.7,513.9,1205.1,513.9z"/>
<path class="st0" d="M1399,160.6h2.2v19.2h-2.8V164c-0.5,0.3-1,0.5-1.5,0.7c-0.5,0.2-1,0.2-1.6,0.3v-2.8
	C1396.6,162,1397.9,161.5,1399,160.6L1399,160.6z"/>
<path class="st0" d="M1344.5,61.2c-1.4,0-2.8-0.4-4-1.1c-1.2-0.8-2.1-2-2.7-3.3c-0.7-1.8-1-3.7-1-5.5c0-1.9,0.3-3.8,1-5.5
	c0.5-1.3,1.5-2.5,2.7-3.3c1.2-0.7,2.6-1.1,4-1.1c1.4,0,2.8,0.3,4,1.1c1.2,0.8,2.2,1.9,2.7,3.3c0.7,1.8,1,3.6,1,5.5
	c0,1.9-0.3,3.8-1,5.5C1350.1,59.6,1347.4,61.4,1344.5,61.2z M1344.5,58.6c1.4,0.1,2.8-0.7,3.5-1.9c0.9-1.7,1.3-3.5,1.2-5.4
	c0.1-1.9-0.3-3.8-1.2-5.4c-1.3-1.9-3.8-2.5-5.8-1.2c-0.5,0.3-0.9,0.7-1.2,1.2c-0.9,1.7-1.3,3.5-1.2,5.4c-0.1,1.9,0.3,3.8,1.2,5.4
	C1341.7,57.9,1343.1,58.7,1344.5,58.6z"/>
<path class="st0" d="M1320.9,20.9h1.9v18.9h-2.3V23.7c-0.5,0.3-1,0.6-1.5,0.8c-0.5,0.2-1,0.3-1.6,0.3v-2.3c0.6-0.1,1.2-0.3,1.8-0.5
	C1319.8,21.7,1320.4,21.4,1320.9,20.9z"/>
<path class="st0" d="M1348.7,161.4h1.1v18.2h-1.1v-16.9c-0.4,0.4-0.9,0.8-1.5,1c-0.5,0.2-1.1,0.4-1.6,0.4v-1.1
	c0.6-0.1,1.2-0.3,1.7-0.5C1347.8,162.2,1348.3,161.9,1348.7,161.4z"/>
<path class="st0" d="M1349.8,700.8c-4.8,0.1-9.5-1.1-13.7-3.4c-4.1-2.4-7.4-6.1-9.4-10.4c-2.3-4.7-3.4-10.6-3.4-17.7
	s1.1-13.1,3.4-17.8c2-4.4,5.3-8,9.4-10.4c4.2-2.3,8.9-3.5,13.7-3.4c4.7-0.1,9.4,1.1,13.6,3.4c4.1,2.4,7.4,6.1,9.4,10.4
	c2.3,4.7,3.4,10.6,3.4,17.8s-1.1,13.1-3.4,17.7c-2,4.3-5.3,8-9.4,10.4C1359.3,699.8,1354.6,700.9,1349.8,700.8z M1349.8,687.8
	c3.4,0,6.6-1.7,8.4-4.7c2.1-3.1,3.2-7.7,3.2-13.8s-1.1-10.7-3.2-13.9c-1.7-3-4.9-4.8-8.4-4.8c-3.5-0.1-6.8,1.7-8.6,4.8
	c-2.1,3.2-3.1,7.8-3.1,13.9c0,6.1,1,10.7,3.1,13.8C1343.1,686.1,1346.3,687.8,1349.8,687.8z"/>
<path class="st0" d="M1422,710.3h10.4v60.9H1418v-43.6c-1.7,0.4-3.3,0.8-4.8,1c-1.5,0.2-3,0.3-4.5,0.3v-13.7
	c2.2-0.2,4.3-0.6,6.4-1.4C1417.6,713,1419.9,711.8,1422,710.3z"/>
<path class="st0" d="M1276.5,638.1h1.8v30.3h-1.8v-28.2c-0.7,0.7-1.5,1.2-2.4,1.6c-0.9,0.4-1.8,0.6-2.7,0.6v-1.9
	c1-0.2,1.9-0.5,2.8-0.9C1275.1,639.3,1275.9,638.8,1276.5,638.1z"/>
<path class="st0" d="M1298.6,754.6c-1.3,0-2.6-0.3-3.7-1.1c-1.1-0.8-2-1.9-2.4-3.2c-0.6-1.7-0.9-3.5-0.9-5.3
	c-0.1-1.8,0.2-3.6,0.9-5.3c0.5-1.3,1.3-2.4,2.4-3.2c2.3-1.4,5.1-1.4,7.4,0c1.1,0.8,2,1.9,2.4,3.2c0.6,1.7,0.9,3.5,0.9,5.3
	c0.1,1.8-0.2,3.6-0.9,5.3c-0.5,1.3-1.3,2.4-2.4,3.2C1301.2,754.3,1300,754.7,1298.6,754.6z M1298.6,753c1.6,0.1,3.1-0.7,3.9-2.1
	c1.7-3.7,1.7-8,0-11.8c-1.4-2.1-4.3-2.7-6.5-1.3c-0.5,0.3-0.9,0.8-1.3,1.3c-1.8,3.7-1.8,8,0,11.8
	C1295.6,752.3,1297.1,753.1,1298.6,753L1298.6,753z"/>
<rect x="197.8" class="st0" width="21.8" height="49.6"/>
<rect x="417" class="st0" width="7" height="26.8"/>
<path class="st0" d="M43.3,202.7c-3.1-6.8-7.4-11.9-12.9-15.2c-5.7-3.4-12.3-5.1-19-5c-3.9,0-7.7,0.5-11.4,1.6v17
	c3.1-2.7,7.2-4.2,11.4-4.1c6-0.2,11.7,2.9,14.7,8.1c3.5,5.4,5.2,13.2,5.2,23.3c0,10.1-1.8,17.8-5.2,23.2c-3.1,5.2-8.7,8.2-14.8,8.1
	c-4.2,0.1-8.2-1.3-11.4-4v17.1c3.7,1.1,7.5,1.6,11.4,1.6c6.7,0.1,13.3-1.6,19-5c5.5-3.3,9.8-8.4,12.9-15.2
	c3.1-6.8,4.7-15.4,4.7-25.7C48,218.1,46.4,209.5,43.3,202.7z"/>
<path class="st0" d="M442.7,777.4V800h12.9v-37.9h-10.1c-4.9,3.8-10.7,6.3-16.9,7v12.5c2.4-0.1,4.8-0.5,7.1-1.2
	C438.2,779.7,440.5,778.7,442.7,777.4z"/>
<path class="st0" d="M511.3,800c-1.3-2.7-1.9-5.8-1.8-8.8c0-4,0.7-7.2,2.1-9.4c2.2-3.4,6.8-4.3,10.2-2.1c0.8,0.5,1.6,1.3,2.1,2.1
	c1.4,2.2,2.1,5.3,2.1,9.4c0.1,3-0.5,6-1.8,8.8h4.4c1-2.8,1.5-5.8,1.4-8.8c0.1-3.1-0.4-6.2-1.5-9.1c-2.3-5.9-9-8.9-14.9-6.6
	c-3,1.2-5.4,3.6-6.6,6.6c-1.1,2.9-1.6,6-1.5,9.1c-0.1,3,0.4,6,1.4,8.8H511.3z"/>
<path class="st0" d="M923.2,800h9.4c-0.3-0.4-0.6-0.9-0.9-1.4c-4-6.3-6-15.2-6-26.7c0-11.5,2-20.4,6-26.7c4-6.3,9.9-9.5,17.6-9.5
	c7.8,0,13.7,3.2,17.7,9.5c4,6.3,6,15.2,5.9,26.7c0,11.5-2,20.4-5.9,26.7c-0.3,0.5-0.6,0.9-0.9,1.4h9.3c0.7-1.3,1.3-2.5,1.8-3.9
	c2.7-6.5,4-14.5,4-24.2c0-9.7-1.3-17.7-4-24.1c-2.7-6.4-6.4-11.2-11.1-14.4c-10.3-6.4-23.3-6.4-33.6,0c-4.8,3.2-8.5,8-11.1,14.4
	c-2.6,6.4-3.9,14.4-3.9,24.1c0,9.7,1.3,17.7,3.9,24.2C921.9,797.5,922.5,798.8,923.2,800z"/>
<path class="st0" d="M1056.5,800c1.1-0.7,2.2-1.6,3.2-2.6v2.6h5v-8.3h-4.9c-1.8,1.8-4,3.3-6.4,4.3c-2.5,1.1-5.1,1.9-7.7,2.3v1.6
	H1056.5z"/>
<path class="st0" d="M1358,777.7c-2.1,1.4-4.4,2.6-6.8,3.5c-2.1,0.7-4.2,1.2-6.4,1.4v13.7c1.5,0,3-0.1,4.5-0.3
	c1.5-0.2,3.1-0.6,4.8-1v5h14.4v-22.3H1358z"/>
<path class="st0" d="M1440.4,580c-4.3,2.2-9,3.5-13.8,3.9v20.7c2.3,0,4.5-0.1,6.8-0.5c2.2-0.4,4.5-0.8,7-1.4L1440.4,580z"/>
<path class="st0" d="M1440.4,460.6c0,11.5-2,20.4-6,26.7s-9.9,9.5-17.7,9.5c-7.7,0-13.6-3.2-17.6-9.5c-4-6.3-6-15.2-6-26.7
	c0-11.5,2-20.4,6-26.7c4-6.3,9.9-9.5,17.6-9.5c7.8,0,13.7,3.1,17.7,9.5C1438.4,440.3,1440.4,449.2,1440.4,460.6v-31.8
	c-1.9-2.6-4.2-4.9-6.9-6.7c-10.3-6.4-23.3-6.4-33.6,0c-4.8,3.2-8.5,8-11.1,14.4c-2.6,6.4-4,14.5-4,24.1c0,9.7,1.3,17.7,4,24.2
	c2.7,6.5,6.4,11.3,11.1,14.5c10.3,6.4,23.3,6.4,33.6,0c2.7-1.8,5-4.1,6.9-6.8L1440.4,460.6z"/>
<path class="st0" d="M1440.4,337.8c-0.4,0.3-0.9,0.5-1.4,0.7c-1.6,0.7-3.3,1.2-5.1,1.5v3.4c1.7-0.1,3.3-0.5,4.9-1.1
	c0.5-0.2,1.1-0.5,1.6-0.8L1440.4,337.8z"/>
</svg>
