<svg id="Layer_1" data-name="Layer 1" xmlns="http://www.w3.org/2000/svg" viewBox="0 0 744.67 169.37"><defs><style>.cls-1{fill:#25478f;}.cls-2{fill:#45a82c;}.cls-3{fill:#161430;}</style></defs><path class="cls-1" d="M64.32,144.2a13.74,13.74,0,0,0-27.48,0,13.6,13.6,0,0,0,.5,3.63h-.07l.16.35a13.55,13.55,0,0,0,1.4,3.13l11.75,26.15,11.75-26.15a13.55,13.55,0,0,0,1.4-3.13l.16-.35h-.07A13.6,13.6,0,0,0,64.32,144.2ZM50.58,154a9.65,9.65,0,1,1,9.65-9.65A9.65,9.65,0,0,1,50.58,154Z" transform="translate(-36.84 -17.13)"/><path class="cls-2" d="M781.51,44.48a13.75,13.75,0,1,0-27.49,0,13.52,13.52,0,0,0,.5,3.62h-.06l.15.35A13.82,13.82,0,0,0,756,51.58l11.74,26.15,11.75-26.15a13.82,13.82,0,0,0,1.41-3.13l.15-.35H781A13.94,13.94,0,0,0,781.51,44.48Zm-13.75,9.75a9.65,9.65,0,1,1,9.65-9.65A9.64,9.64,0,0,1,767.76,54.23Z" transform="translate(-36.84 -17.13)"/><path class="cls-3" d="M85.16,172.94l2.71,3.22s-3.06,4.67-5.42,2.39S83.77,173.65,85.16,172.94Z" transform="translate(-36.84 -17.13)"/><path class="cls-3" d="M86.26,171.82,89,175.13s-.19-.61,5.79-1.84,4.39-7,4.39-7-1.51-3.82-7.16.41S86.26,171.82,86.26,171.82Z" transform="translate(-36.84 -17.13)"/><path class="cls-3" d="M95,178.58l.14,4.2s-5.38,1.38-5.76-2S93.93,178.33,95,178.58Z" transform="translate(-36.84 -17.13)"/><path class="cls-3" d="M96.52,178.57l.16,4.28s14.51,1.41,13-5S97.65,178.88,96.52,178.57Z" transform="translate(-36.84 -17.13)"/><path class="cls-3" d="M118.52,159.22l3,3s-2.68,4.9-5.21,2.82S117.19,160,118.52,159.22Z" transform="translate(-36.84 -17.13)"/><path class="cls-3" d="M119.53,158l3,3.09s-.24-.59,5.63-2.3,3.82-7.32,3.82-7.32-1.81-3.69-7.11,1S119.53,158,119.53,158Z" transform="translate(-36.84 -17.13)"/><path class="cls-3" d="M128.74,164.06l.48,4.17s-5.26,1.81-5.91-1.57S127.69,163.9,128.74,164.06Z" transform="translate(-36.84 -17.13)"/><path class="cls-3" d="M130.29,163.93l.51,4.26s14.56.24,12.55-6S131.44,164.14,130.29,163.93Z" transform="translate(-36.84 -17.13)"/><path class="cls-3" d="M151.57,143.33l3.43,2.45s-1.83,5.28-4.67,3.65S150.41,144.36,151.57,143.33Z" transform="translate(-36.84 -17.13)"/><path class="cls-3" d="M152.36,142l3.51,2.53s-.33-.54,5.17-3.2,2.53-7.86,2.53-7.86-2.4-3.34-6.84,2.16S152.36,142,152.36,142Z" transform="translate(-36.84 -17.13)"/><path class="cls-3" d="M162.46,146.39l1.17,4s-4.87,2.66-6.08-.56S161.4,146.4,162.46,146.39Z" transform="translate(-36.84 -17.13)"/><path class="cls-3" d="M164,146l1.21,4.11s14.4-2.2,11.36-8S165.14,146,164,146Z" transform="translate(-36.84 -17.13)"/><path class="cls-3" d="M305.05,21.15l1.31,4s-4.59,3.18-5.92.18S303.5,21.29,305.05,21.15Z" transform="translate(-36.84 -17.13)"/><path class="cls-3" d="M306.49,20.53l1.33,4.11s.05-.63,6.07.47,6.69-4.84,6.69-4.84,0-4.11-6.8-2.31S306.49,20.53,306.49,20.53Z" transform="translate(-36.84 -17.13)"/><path class="cls-3" d="M312,30.06,310.58,34S305.07,33.27,306,30,311.16,29.44,312,30.06Z" transform="translate(-36.84 -17.13)"/><path class="cls-3" d="M313.47,30.63l-1.46,4s12.92,6.74,13.92.24S314.4,31.34,313.47,30.63Z" transform="translate(-36.84 -17.13)"/><path class="cls-3" d="M563.7,166.81l2.14,3.62s-3.8,4.1-5.74,1.46S562.21,167.28,563.7,166.81Z" transform="translate(-36.84 -17.13)"/><path class="cls-3" d="M565,165.88l2.19,3.73s-.09-.62,6-.84,5.49-6.17,5.49-6.17-.85-4-7.13-.79S565,165.88,565,165.88Z" transform="translate(-36.84 -17.13)"/><path class="cls-3" d="M572.42,174l-.55,4.16s-5.54.47-5.34-3S571.45,173.58,572.42,174Z" transform="translate(-36.84 -17.13)"/><path class="cls-3" d="M574,174.25l-.55,4.25s14.07,3.8,13.64-2.76S575,174.74,574,174.25Z" transform="translate(-36.84 -17.13)"/><path class="cls-3" d="M180.5,118.64l4,1.22s0,5.59-3.25,5S179.73,120,180.5,118.64Z" transform="translate(-36.84 -17.13)"/><path class="cls-3" d="M180.81,117.1l4.14,1.27s-.49-.41,3.86-4.7-.13-8.26-.13-8.26-3.35-2.38-5.79,4.25S180.81,117.1,180.81,117.1Z" transform="translate(-36.84 -17.13)"/><path class="cls-3" d="M191.79,118l2.41,3.44s-3.76,4.08-5.95,1.42S190.79,118.39,191.79,118Z" transform="translate(-36.84 -17.13)"/><path class="cls-3" d="M193.09,117.18l2.47,3.5s12.93-6.72,8.18-11.26S194.21,116.82,193.09,117.18Z" transform="translate(-36.84 -17.13)"/><path class="cls-3" d="M194.73,82.42l4.08,1s.23,5.58-3,5.1S194,83.81,194.73,82.42Z" transform="translate(-36.84 -17.13)"/><path class="cls-3" d="M195,80.87l4.19,1.07s-.51-.38,3.64-4.87-.51-8.24-.51-8.24-3.46-2.22-5.59,4.51S195,80.87,195,80.87Z" transform="translate(-36.84 -17.13)"/><path class="cls-3" d="M206,81.3l2.56,3.32s-3.56,4.26-5.86,1.7S205,81.69,206,81.3Z" transform="translate(-36.84 -17.13)"/><path class="cls-3" d="M207.24,80.38l2.63,3.38s12.61-7.3,7.65-11.62S208.34,80,207.24,80.38Z" transform="translate(-36.84 -17.13)"/><path class="cls-3" d="M222,45.51,225.38,48s-1.81,5.28-4.66,3.66S220.79,46.55,222,45.51Z" transform="translate(-36.84 -17.13)"/><path class="cls-3" d="M222.74,44.15l3.52,2.53s-.34-.54,5.16-3.22,2.52-7.86,2.52-7.86-2.41-3.33-6.85,2.17S222.74,44.15,222.74,44.15Z" transform="translate(-36.84 -17.13)"/><path class="cls-3" d="M232.85,48.55l1.18,4s-4.87,2.67-6.09-.54S231.79,48.57,232.85,48.55Z" transform="translate(-36.84 -17.13)"/><path class="cls-3" d="M234.36,48.16l1.22,4.11S250,50,246.92,44.21,235.53,48.17,234.36,48.16Z" transform="translate(-36.84 -17.13)"/><path class="cls-3" d="M259.34,23.38,261.48,27s-3.79,4.09-5.74,1.45S257.86,23.85,259.34,23.38Z" transform="translate(-36.84 -17.13)"/><path class="cls-3" d="M260.62,22.46l2.18,3.73s-.08-.63,6-.85,5.49-6.17,5.49-6.17-.85-4-7.13-.79S260.62,22.46,260.62,22.46Z" transform="translate(-36.84 -17.13)"/><path class="cls-3" d="M268.07,30.57l-.56,4.16s-5.53.47-5.34-3S267.1,30.16,268.07,30.57Z" transform="translate(-36.84 -17.13)"/><path class="cls-3" d="M269.61,30.82l-.55,4.25s14.06,3.8,13.64-2.76S270.67,31.31,269.61,30.82Z" transform="translate(-36.84 -17.13)"/><path class="cls-3" d="M349,31.28l.6,4.17s-5.07,2.35-5.87-.84S347.43,31.16,349,31.28Z" transform="translate(-36.84 -17.13)"/><path class="cls-3" d="M350.51,30.92l.61,4.28s.16-.62,5.89,1.51,7.42-3.62,7.42-3.62.74-4-6.3-3.44S350.51,30.92,350.51,30.92Z" transform="translate(-36.84 -17.13)"/><path class="cls-3" d="M354.32,41.26l-2.1,3.64s-5.3-1.68-3.81-4.78S353.58,40.5,354.32,41.26Z" transform="translate(-36.84 -17.13)"/><path class="cls-3" d="M355.64,42.08l-2.12,3.72s11.56,8.87,13.66,2.64S356.44,42.93,355.64,42.08Z" transform="translate(-36.84 -17.13)"/><path class="cls-3" d="M390.19,59.71l-1.43,4s-5.57-.3-4.78-3.49S388.87,58.87,390.19,59.71Z" transform="translate(-36.84 -17.13)"/><path class="cls-3" d="M391.71,60.1l-1.47,4.06s.42-.46,4.49,4.1,8.25.28,8.25.28,2.55-3.22-3.94-6S391.71,60.1,391.71,60.1Z" transform="translate(-36.84 -17.13)"/><path class="cls-3" d="M390.22,71l-3.55,2.23s-3.9-4-1.13-6S389.92,70,390.22,71Z" transform="translate(-36.84 -17.13)"/><path class="cls-3" d="M391,72.36l-3.62,2.29s6.06,13.25,10.84,8.73S391.32,73.49,391,72.36Z" transform="translate(-36.84 -17.13)"/><path class="cls-3" d="M422,99.49l-2.94,3s-4.95-2.58-2.92-5.16S421.12,98.19,422,99.49Z" transform="translate(-36.84 -17.13)"/><path class="cls-3" d="M423.19,100.47l-3,3.1s.59-.25,2.42,5.58,7.4,3.66,7.4,3.66,3.65-1.88-1.13-7.08S423.19,100.47,423.19,100.47Z" transform="translate(-36.84 -17.13)"/><path class="cls-3" d="M417.34,109.81l-4.16.57s-1.92-5.22,1.44-5.94S417.48,108.76,417.34,109.81Z" transform="translate(-36.84 -17.13)"/><path class="cls-3" d="M417.5,111.36l-4.24.6s.06,14.57,6.27,12.42S417.31,112.52,417.5,111.36Z" transform="translate(-36.84 -17.13)"/><path class="cls-3" d="M439,139.18,437.25,143s-5.54-.71-4.52-3.83S437.71,138.25,439,139.18Z" transform="translate(-36.84 -17.13)"/><path class="cls-3" d="M440.45,139.68l-1.77,3.95s.46-.43,4.19,4.41,8.2.89,8.2.89,2.78-3-3.49-6.26S440.45,139.68,440.45,139.68Z" transform="translate(-36.84 -17.13)"/><path class="cls-3" d="M438.17,150.46l-3.71,2s-3.6-4.24-.69-6.07S437.94,149.43,438.17,150.46Z" transform="translate(-36.84 -17.13)"/><path class="cls-3" d="M438.86,151.86l-3.79,2s5.08,13.66,10.17,9.51S439.08,153,438.86,151.86Z" transform="translate(-36.84 -17.13)"/><path class="cls-3" d="M473.29,164.62l-.17,4.21s-5.41,1.37-5.61-1.9S471.79,164.21,473.29,164.62Z" transform="translate(-36.84 -17.13)"/><path class="cls-3" d="M474.86,164.54l-.19,4.32s.27-.58,5.52,2.56,8-2.19,8-2.19,1.47-3.84-5.56-4.54S474.86,164.54,474.86,164.54Z" transform="translate(-36.84 -17.13)"/><path class="cls-3" d="M476.71,175.4,474,178.59s-4.9-2.61-2.87-5.39S476.12,174.52,476.71,175.4Z" transform="translate(-36.84 -17.13)"/><path class="cls-3" d="M477.86,176.45l-2.77,3.27s9.74,10.83,13,5.09S478.49,177.44,477.86,176.45Z" transform="translate(-36.84 -17.13)"/><path class="cls-3" d="M515.67,167.93l1.28,4s-4.61,3.15-5.92.14S514.12,168.06,515.67,167.93Z" transform="translate(-36.84 -17.13)"/><path class="cls-3" d="M517.12,167.31l1.3,4.13s.06-.64,6.06.51,6.72-4.79,6.72-4.79.07-4.11-6.78-2.36S517.12,167.31,517.12,167.31Z" transform="translate(-36.84 -17.13)"/><path class="cls-3" d="M522.58,176.88l-1.47,3.94s-5.5-.78-4.55-4.08S521.72,176.26,522.58,176.88Z" transform="translate(-36.84 -17.13)"/><path class="cls-3" d="M524,177.47l-1.48,4s12.87,6.84,13.91.34S525,178.19,524,177.47Z" transform="translate(-36.84 -17.13)"/><path class="cls-3" d="M602.12,150.35l2.76,3.18s-3,4.71-5.38,2.47S600.74,151.08,602.12,150.35Z" transform="translate(-36.84 -17.13)"/><path class="cls-3" d="M603.2,149.21l2.83,3.27s-.2-.6,5.77-1.93,4.27-7.06,4.27-7.06-1.56-3.79-7.15.52S603.2,149.21,603.2,149.21Z" transform="translate(-36.84 -17.13)"/><path class="cls-3" d="M612,155.84l.21,4.19s-5.35,1.47-5.79-1.95S611,155.61,612,155.84Z" transform="translate(-36.84 -17.13)"/><path class="cls-3" d="M613.56,155.8l.23,4.29s14.53,1.18,12.91-5.2S614.7,156.09,613.56,155.8Z" transform="translate(-36.84 -17.13)"/><path class="cls-3" d="M642.41,128.79l3.05,2.91s-2.54,5-5.13,3S641.12,129.65,642.41,128.79Z" transform="translate(-36.84 -17.13)"/><path class="cls-3" d="M643.39,127.55l3.12,3s-.26-.58,5.56-2.45,3.61-7.43,3.61-7.43-1.92-3.64-7.08,1.18S643.39,127.55,643.39,127.55Z" transform="translate(-36.84 -17.13)"/><path class="cls-3" d="M652.77,133.34l.6,4.15s-5.2,2-6-1.4S651.72,133.2,652.77,133.34Z" transform="translate(-36.84 -17.13)"/><path class="cls-3" d="M654.32,133.16l.62,4.24s14.57-.17,12.38-6.37S655.48,133.34,654.32,133.16Z" transform="translate(-36.84 -17.13)"/><path class="cls-3" d="M682.34,102l1.69,3.86s-4.27,3.61-5.88.75S680.81,102.31,682.34,102Z" transform="translate(-36.84 -17.13)"/><path class="cls-3" d="M683.71,101.25l1.73,4s0-.64,6.07-.12,6.2-5.46,6.2-5.46-.36-4.09-7-1.64S683.71,101.25,683.71,101.25Z" transform="translate(-36.84 -17.13)"/><path class="cls-3" d="M690.13,110.21l-1,4.06s-5.55-.2-4.94-3.59S689.22,109.68,690.13,110.21Z" transform="translate(-36.84 -17.13)"/><path class="cls-3" d="M691.63,110.64l-1.06,4.16s13.51,5.46,13.88-1.1S692.63,111.26,691.63,110.64Z" transform="translate(-36.84 -17.13)"/><path class="cls-3" d="M720.73,86.08l2.14,3.63s-3.79,4.1-5.74,1.45S719.25,86.56,720.73,86.08Z" transform="translate(-36.84 -17.13)"/><path class="cls-3" d="M722,85.16l2.19,3.73s-.09-.63,6-.85,5.49-6.16,5.49-6.16-.85-4-7.13-.79S722,85.16,722,85.16Z" transform="translate(-36.84 -17.13)"/><path class="cls-3" d="M729.46,93.28l-.56,4.16s-5.53.47-5.34-3S728.48,92.86,729.46,93.28Z" transform="translate(-36.84 -17.13)"/><path class="cls-3" d="M731,93.53l-.55,4.25s14.06,3.8,13.63-2.76S732.06,94,731,93.53Z" transform="translate(-36.84 -17.13)"/></svg>