<svg id="Layer_1" data-name="Layer 1" xmlns="http://www.w3.org/2000/svg" viewBox="0 0 1440.42 800"><defs><style>.cls-1{fill:#45a82c;}</style></defs><path class="cls-1" d="M85.67,355.19H95.73v87H82.81V370.49a31.74,31.74,0,0,1-6.94,3,28.52,28.52,0,0,1-7.07,1.19V362.2a33.71,33.71,0,0,0,16.87-7Z"/><path class="cls-1" d="M70.53,645.39H79.1v85.68H68.49V657.91a27.41,27.41,0,0,1-6.84,3.43,25.75,25.75,0,0,1-7.17,1.33V652.33a36.15,36.15,0,0,0,8.33-2.24A29.08,29.08,0,0,0,70.53,645.39Z"/><path class="cls-1" d="M239.55,766.57a29.23,29.23,0,0,1-16.79-4.83q-7.14-4.83-11.09-14.52t-3.94-24.17q0-14.49,3.94-24.11t11.09-14.41a31.78,31.78,0,0,1,33.59,0q7.14,4.79,11.12,14.41t4,24.11q0,14.48-4,24.17t-11.12,14.52A29.26,29.26,0,0,1,239.55,766.57Zm0-7.35q11.77,0,17.72-9.48t6-26.69q0-17.2-6-26.66t-17.72-9.45q-11.55,0-17.58,9.45t-6,26.66q0,17.21,6,26.69T239.55,759.22Z"/><path class="cls-1" d="M177.67,579.83h4.89v82.49h-5V585.54a20.67,20.67,0,0,1-6.63,4.39,22.37,22.37,0,0,1-7.37,1.73V586.5a36.57,36.57,0,0,0,7.71-2.35A20.54,20.54,0,0,0,177.67,579.83Z"/><path class="cls-1" d="M107.74,82A27.32,27.32,0,0,1,94,78.61a23.24,23.24,0,0,1-9.4-10.41q-3.41-7-3.4-17.71t3.4-17.84A23.11,23.11,0,0,1,94,22.25a27.51,27.51,0,0,1,13.75-3.4,26.93,26.93,0,0,1,13.59,3.4,23.37,23.37,0,0,1,9.36,10.4q3.42,7,3.42,17.84T130.69,68.2a23.5,23.5,0,0,1-9.36,10.41A26.74,26.74,0,0,1,107.74,82Zm0-13.09a9.66,9.66,0,0,0,8.37-4.66q3.15-4.65,3.15-13.79t-3.15-13.88a9.62,9.62,0,0,0-8.37-4.75,9.74,9.74,0,0,0-8.57,4.75Q96,41.35,96,50.49t3.13,13.79A9.78,9.78,0,0,0,107.74,68.94Z"/><path class="cls-1" d="M180,91.52h10.44v60.93H176v-43.6c-1.71.42-3.31.75-4.79,1a24.94,24.94,0,0,1-4.48.31V96.47a24.82,24.82,0,0,0,6.41-1.39A32.83,32.83,0,0,0,180,91.52Z"/><path class="cls-1" d="M166.06,544.82A22.11,22.11,0,0,1,154,541.53a21.35,21.35,0,0,1-8.08-9.9Q143,525,143,515t2.88-16.6a21.09,21.09,0,0,1,8.08-9.86,24,24,0,0,1,24.09,0,21.27,21.27,0,0,1,8.08,9.86q2.91,6.62,2.9,16.6t-2.9,16.65a21.53,21.53,0,0,1-8.08,9.9A21.92,21.92,0,0,1,166.06,544.82Zm0-7.88a11.77,11.77,0,0,0,10.51-5.69q3.66-5.68,3.66-16.27t-3.66-16.24a12.52,12.52,0,0,0-21,0q-3.66,5.72-3.67,16.24t3.67,16.27A11.77,11.77,0,0,0,166.06,536.94Z"/><path class="cls-1" d="M123.38,444.4h5.67v56.7h-7V452.68a17.91,17.91,0,0,1-4.52,2.27,16.79,16.79,0,0,1-4.75.88V449a23.54,23.54,0,0,0,5.51-1.49A19.1,19.1,0,0,0,123.38,444.4Z"/><path class="cls-1" d="M73.78,558.65a19.35,19.35,0,0,1-11.11-3.19,20.55,20.55,0,0,1-7.34-9.61q-2.61-6.42-2.61-16t2.61-16a20.34,20.34,0,0,1,7.34-9.54,19.41,19.41,0,0,1,11.11-3.17,19.44,19.44,0,0,1,11.12,3.17,20.5,20.5,0,0,1,7.36,9.54q2.63,6.36,2.63,16t-2.63,16a20.71,20.71,0,0,1-7.36,9.61A19.38,19.38,0,0,1,73.78,558.65Zm0-4.86q7.78,0,11.73-6.28t3.93-17.66q0-11.39-3.93-17.64T73.78,506a12.94,12.94,0,0,0-11.63,6.25q-4,6.25-4,17.64t4,17.66A12.92,12.92,0,0,0,73.78,553.79Z"/><path class="cls-1" d="M266.11,598h3.24v54.59H266V601.78a13.9,13.9,0,0,1-4.39,2.91,15,15,0,0,1-4.88,1.14v-3.42a23.5,23.5,0,0,0,5.1-1.55A13.52,13.52,0,0,0,266.11,598Z"/><path class="cls-1" d="M115.91,158.84h10.44v60.93H112v-43.6c-1.71.42-3.3.75-4.79,1a25,25,0,0,1-4.48.32V163.79a24.82,24.82,0,0,0,6.41-1.39A32.83,32.83,0,0,0,115.91,158.84Z"/><path class="cls-1" d="M89.72,323.25a13.33,13.33,0,0,1-7-1.85,12.36,12.36,0,0,1-4.75-5.6,27,27,0,0,1,0-18.92,12.28,12.28,0,0,1,4.75-5.59,14.29,14.29,0,0,1,14,0,12.22,12.22,0,0,1,4.75,5.59,27,27,0,0,1,0,18.92,12.3,12.3,0,0,1-4.75,5.6A13.2,13.2,0,0,1,89.72,323.25Zm0-5.4a6.13,6.13,0,0,0,5.43-3c1.28-2,1.92-4.82,1.92-8.54s-.64-6.57-1.92-8.56a6.45,6.45,0,0,0-10.89,0q-1.94,3-1.94,8.56c0,3.72.65,6.56,1.94,8.54A6.17,6.17,0,0,0,89.72,317.85Z"/><path class="cls-1" d="M226.52,512.75h3.7v32h-4.75V518.38a11.88,11.88,0,0,1-2.55,1.11,10.19,10.19,0,0,1-2.6.44v-4.6a12.31,12.31,0,0,0,6.2-2.58Z"/><path class="cls-1" d="M157.87,400.6a11.55,11.55,0,0,1-6.46-1.8,11.68,11.68,0,0,1-4.3-5.42,27.48,27.48,0,0,1,0-18.14,11.54,11.54,0,0,1,21.52,0,27.48,27.48,0,0,1,0,18.14,11,11,0,0,1-10.76,7.22Zm0-3.6a6.83,6.83,0,0,0,6.15-3.31q2.1-3.31,2.1-9.39t-2.1-9.39a7.35,7.35,0,0,0-12.28,0q-2.12,3.31-2.12,9.39t2.12,9.39A6.85,6.85,0,0,0,157.87,397Z"/><path class="cls-1" d="M126.38,713.26h3.15v31.5h-3.9v-26.9a10,10,0,0,1-2.51,1.26,9.1,9.1,0,0,1-2.64.49v-3.8a13.06,13.06,0,0,0,3.06-.82A10.72,10.72,0,0,0,126.38,713.26Z"/><path class="cls-1" d="M192.3,246.12a10.79,10.79,0,0,1-6.18-1.77,11.31,11.31,0,0,1-4.07-5.34,27.89,27.89,0,0,1,0-17.75,11.29,11.29,0,0,1,4.07-5.3,11.71,11.71,0,0,1,12.35,0,11.45,11.45,0,0,1,4.09,5.3,27.7,27.7,0,0,1,0,17.75,11.47,11.47,0,0,1-4.09,5.34A10.78,10.78,0,0,1,192.3,246.12Zm0-2.7a7.2,7.2,0,0,0,6.51-3.48q2.19-3.49,2.19-9.82t-2.19-9.8a7.8,7.8,0,0,0-13,0q-2.21,3.48-2.21,9.8t2.21,9.82A7.2,7.2,0,0,0,192.3,243.42Z"/><path class="cls-1" d="M34.46,19.29h1.8V49.62H34.41V21.39A7.57,7.57,0,0,1,32,23a8.16,8.16,0,0,1-2.71.64v-1.9a13,13,0,0,0,2.83-.86A7.48,7.48,0,0,0,34.46,19.29Z"/><path class="cls-1" d="M213.2,302.24h3.48v20.31h-4.8V308q-.85.21-1.59.33a8.41,8.41,0,0,1-1.5.1v-4.56a8.35,8.35,0,0,0,2.14-.46A11.12,11.12,0,0,0,213.2,302.24Z"/><path class="cls-1" d="M27.87,779.5a7.93,7.93,0,0,1-4.22-1.11A7.32,7.32,0,0,1,20.8,775a16.18,16.18,0,0,1,0-11.36,7.24,7.24,0,0,1,2.85-3.35,7.93,7.93,0,0,1,4.22-1.1,7.87,7.87,0,0,1,4.19,1.1,7.32,7.32,0,0,1,2.86,3.35,16.32,16.32,0,0,1,0,11.36,7.4,7.4,0,0,1-2.86,3.36A7.88,7.88,0,0,1,27.87,779.5Zm0-3.24a3.69,3.69,0,0,0,3.26-1.78,12,12,0,0,0,0-10.26,3.88,3.88,0,0,0-6.54,0,11.92,11.92,0,0,0,0,10.26A3.72,3.72,0,0,0,27.87,776.26Z"/><path class="cls-1" d="M221.77,423H224v19.18h-2.85V426.35a6.85,6.85,0,0,1-1.53.67,6.06,6.06,0,0,1-1.56.26v-2.76a7.72,7.72,0,0,0,1.89-.48A7.8,7.8,0,0,0,221.77,423Z"/><path class="cls-1" d="M167.28,323.64a7.34,7.34,0,0,1-4-1.09,7.11,7.11,0,0,1-2.7-3.3,16.49,16.49,0,0,1,0-11.09,7,7,0,0,1,2.7-3.28,8,8,0,0,1,8,0,7,7,0,0,1,2.69,3.28,16.33,16.33,0,0,1,0,11.09,7.15,7.15,0,0,1-2.69,3.3A7.33,7.33,0,0,1,167.28,323.64Zm0-2.62a4,4,0,0,0,3.51-1.9,12.65,12.65,0,0,0,0-10.84,4.18,4.18,0,0,0-7,0,12.65,12.65,0,0,0,0,10.84A3.94,3.94,0,0,0,167.28,321Z"/><path class="cls-1" d="M143.68,283.34h1.89v18.9h-2.34V286.1a6.12,6.12,0,0,1-1.51.76,5.79,5.79,0,0,1-1.58.29v-2.28a7.94,7.94,0,0,0,1.84-.49A6.49,6.49,0,0,0,143.68,283.34Z"/><path class="cls-1" d="M56.56,135.83a6.44,6.44,0,0,1-3.7-1.06,6.84,6.84,0,0,1-2.45-3.21,14.19,14.19,0,0,1-.87-5.33,14,14,0,0,1,.87-5.31,6.83,6.83,0,0,1,2.45-3.19,7.06,7.06,0,0,1,7.41,0,6.9,6.9,0,0,1,2.45,3.19,14,14,0,0,1,.88,5.31,14.17,14.17,0,0,1-.88,5.33,6.9,6.9,0,0,1-2.45,3.21A6.47,6.47,0,0,1,56.56,135.83Zm0-1.62a4.31,4.31,0,0,0,3.91-2.09,13.87,13.87,0,0,0,0-11.77,4.69,4.69,0,0,0-7.79,0,13.78,13.78,0,0,0,0,11.77A4.31,4.31,0,0,0,56.56,134.21Z"/><path class="cls-1" d="M171.46,423.83h1.08V442h-1.11V425.09a4.55,4.55,0,0,1-1.46,1,4.91,4.91,0,0,1-1.63.39V425.3a7.59,7.59,0,0,0,1.7-.51A4.51,4.51,0,0,0,171.46,423.83Z"/><path class="cls-1" d="M365.55,171.1h8.56v85.68h-10.6V183.61a27.45,27.45,0,0,1-6.84,3.44,25.73,25.73,0,0,1-7.17,1.32V178a35.81,35.81,0,0,0,8.33-2.25A28.78,28.78,0,0,0,365.55,171.1Z"/><path class="cls-1" d="M534.57,292.28a29.28,29.28,0,0,1-16.8-4.83q-7.12-4.83-11.08-14.52t-3.94-24.17q0-14.49,3.94-24.11t11.08-14.42a31.86,31.86,0,0,1,33.6,0q7.14,4.8,11.11,14.42t4,24.11q0,14.48-4,24.17t-11.11,14.52A29.26,29.26,0,0,1,534.57,292.28Zm0-7.35q11.76,0,17.72-9.48t5.94-26.69q0-17.2-5.94-26.66t-17.72-9.45q-11.57,0-17.58,9.45t-6,26.66q0,17.21,6,26.69T534.57,284.93Z"/><path class="cls-1" d="M472.69,105.54h4.89V188h-5V111.25a20.67,20.67,0,0,1-6.63,4.39,22.37,22.37,0,0,1-7.38,1.73V112.2a35.88,35.88,0,0,0,7.72-2.34A20.66,20.66,0,0,0,472.69,105.54Z"/><path class="cls-1" d="M461.08,70.53A22.11,22.11,0,0,1,449,67.24a21.35,21.35,0,0,1-8.08-9.9Q438,50.72,438,40.69t2.88-16.6A21.09,21.09,0,0,1,449,14.23a24,24,0,0,1,24.09,0,21.27,21.27,0,0,1,8.08,9.86q2.91,6.61,2.9,16.6t-2.9,16.65a21.53,21.53,0,0,1-8.08,9.9A21.92,21.92,0,0,1,461.08,70.53Zm0-7.88A11.77,11.77,0,0,0,471.59,57q3.66-5.68,3.66-16.27t-3.66-16.24a12.52,12.52,0,0,0-21,0q-3.68,5.72-3.67,16.24T450.57,57A11.77,11.77,0,0,0,461.08,62.65Z"/><path class="cls-1" d="M368.8,84.36a19.35,19.35,0,0,1-11.11-3.19,20.55,20.55,0,0,1-7.34-9.61q-2.61-6.42-2.61-16t2.61-16a20.34,20.34,0,0,1,7.34-9.54,21.07,21.07,0,0,1,22.23,0,20.42,20.42,0,0,1,7.35,9.54q2.64,6.36,2.64,16t-2.64,16a20.63,20.63,0,0,1-7.35,9.61A19.38,19.38,0,0,1,368.8,84.36Zm0-4.86q7.79,0,11.72-6.28t3.94-17.66q0-11.39-3.94-17.64T368.8,31.67a12.93,12.93,0,0,0-11.63,6.25q-4,6.26-4,17.64t4,17.66A12.91,12.91,0,0,0,368.8,79.5Z"/><path class="cls-1" d="M561.12,123.71h3.24V178.3H561V127.49a13.66,13.66,0,0,1-4.38,2.9,14.86,14.86,0,0,1-4.89,1.15v-3.42a24.15,24.15,0,0,0,5.11-1.55A13.53,13.53,0,0,0,561.12,123.71Z"/><path class="cls-1" d="M521.54,38.46h3.7v32h-4.75V44.09a11.88,11.88,0,0,1-2.55,1.11,10.73,10.73,0,0,1-2.6.44V41a12.9,12.9,0,0,0,3.16-.82A12.32,12.32,0,0,0,521.54,38.46Z"/><path class="cls-1" d="M637.17,63.79a11.57,11.57,0,0,1-6.46-1.8,11.72,11.72,0,0,1-4.3-5.43,23.38,23.38,0,0,1-1.54-9.07,23.35,23.35,0,0,1,1.54-9.07,11.55,11.55,0,0,1,21.53,0,23.36,23.36,0,0,1,1.53,9.07,23.4,23.4,0,0,1-1.53,9.07,11.06,11.06,0,0,1-10.77,7.23Zm0-3.6a6.85,6.85,0,0,0,6.15-3.31q2.1-3.32,2.1-9.39t-2.1-9.39a7.34,7.34,0,0,0-12.27,0q-2.13,3.32-2.13,9.39t2.13,9.39A6.86,6.86,0,0,0,637.17,60.19Z"/><path class="cls-1" d="M421.4,239h3.15v31.5h-3.9v-26.9a10,10,0,0,1-2.51,1.26,9.45,9.45,0,0,1-2.64.49v-3.8a13.09,13.09,0,0,0,3.06-.83A10.68,10.68,0,0,0,421.4,239Z"/><path class="cls-1" d="M322.89,305.21a8,8,0,0,1-4.22-1.11,7.32,7.32,0,0,1-2.85-3.36,16.18,16.18,0,0,1,0-11.36,7.24,7.24,0,0,1,2.85-3.35,8.59,8.59,0,0,1,8.41,0,7.24,7.24,0,0,1,2.85,3.35,16.18,16.18,0,0,1,0,11.36,7.32,7.32,0,0,1-2.85,3.36A8,8,0,0,1,322.89,305.21Zm0-3.24a3.69,3.69,0,0,0,3.26-1.78,12,12,0,0,0,0-10.26,3.88,3.88,0,0,0-6.54,0,11.92,11.92,0,0,0,0,10.26A3.72,3.72,0,0,0,322.89,302Z"/><path class="cls-1" d="M701.07,86.17h2.22v19.18h-2.85V89.54a7.34,7.34,0,0,1-1.53.67,6.53,6.53,0,0,1-1.56.26V87.71a7.52,7.52,0,0,0,3.72-1.54Z"/><path class="cls-1" d="M650.76,87h1.08v18.2h-1.11V88.28a4.44,4.44,0,0,1-1.46,1,4.83,4.83,0,0,1-1.63.38V88.49a8.42,8.42,0,0,0,1.71-.51A4.63,4.63,0,0,0,650.76,87Z"/><path class="cls-1" d="M563.68,364.46h15.78v92.07H557.7V390.64q-3.88,1-7.24,1.5a37.48,37.48,0,0,1-6.77.47V371.94a37.25,37.25,0,0,0,9.69-2.11A49.5,49.5,0,0,0,563.68,364.46Z"/><path class="cls-1" d="M371.26,681.35a36,36,0,0,1-19.14-5q-8.26-5-12.92-15.23t-4.66-25.7q0-15.57,4.66-25.77t12.92-15.2a38.89,38.89,0,0,1,38.15,0q8.26,5,12.92,15.2t4.66,25.77q0,15.5-4.66,25.7t-12.92,15.23A35.76,35.76,0,0,1,371.26,681.35Zm0-14.69A16.64,16.64,0,0,0,386,658.6q5.24-8.05,5.24-23.22T386,612.09a17.55,17.55,0,0,0-29.61,0q-5.28,8.11-5.27,23.29t5.27,23.22A16.76,16.76,0,0,0,371.26,666.66Z"/><path class="cls-1" d="M467.64,489a27.29,27.29,0,0,1-13.75-3.42,23.26,23.26,0,0,1-9.41-10.41q-3.39-7-3.39-17.71t3.39-17.84a23.13,23.13,0,0,1,9.41-10.4,27.49,27.49,0,0,1,13.75-3.4,27,27,0,0,1,13.59,3.4,23.37,23.37,0,0,1,9.36,10.4q3.41,7,3.42,17.84t-3.42,17.71a23.5,23.5,0,0,1-9.36,10.41A26.77,26.77,0,0,1,467.64,489Zm0-13.09A9.66,9.66,0,0,0,476,471.2c2.09-3.1,3.15-7.7,3.15-13.79s-1.06-10.72-3.15-13.88a9.62,9.62,0,0,0-8.37-4.75,9.76,9.76,0,0,0-8.58,4.75q-3.12,4.74-3.12,13.88t3.12,13.79A9.8,9.8,0,0,0,467.64,475.86Z"/><path class="cls-1" d="M539.84,498.44h10.44v60.93h-14.4v-43.6c-1.71.42-3.3.75-4.79,1a24,24,0,0,1-4.48.32V503.39A25,25,0,0,0,533,502,33,33,0,0,0,539.84,498.44Z"/><path class="cls-1" d="M475.81,565.76h10.44v60.93h-14.4v-43.6c-1.71.42-3.31.75-4.79,1a24.94,24.94,0,0,1-4.48.31V570.71a24.91,24.91,0,0,0,6.41-1.39A32.83,32.83,0,0,0,475.81,565.76Z"/><path class="cls-1" d="M449.62,730.17a13.28,13.28,0,0,1-7-1.85,12.3,12.3,0,0,1-4.75-5.6,27,27,0,0,1,0-18.93,12.2,12.2,0,0,1,4.75-5.58,14.27,14.27,0,0,1,14,0,12.14,12.14,0,0,1,4.75,5.58,26.9,26.9,0,0,1,0,18.93,12.24,12.24,0,0,1-4.75,5.6A13.16,13.16,0,0,1,449.62,730.17Zm0-5.4a6.11,6.11,0,0,0,5.42-3c1.29-2,1.93-4.82,1.93-8.54s-.64-6.57-1.93-8.56a6.44,6.44,0,0,0-10.88,0c-1.3,2-1.94,4.84-1.94,8.56s.64,6.56,1.94,8.54A6.17,6.17,0,0,0,449.62,724.77Z"/><path class="cls-1" d="M552.19,653a10.76,10.76,0,0,1-6.17-1.77,11.44,11.44,0,0,1-4.08-5.34,27.89,27.89,0,0,1,0-17.75,11.37,11.37,0,0,1,4.08-5.3,11.71,11.71,0,0,1,12.35,0,11.37,11.37,0,0,1,4.08,5.3,27.53,27.53,0,0,1,0,17.75,11.44,11.44,0,0,1-4.08,5.34A10.79,10.79,0,0,1,552.19,653Zm0-2.7a7.2,7.2,0,0,0,6.51-3.48q2.19-3.5,2.19-9.82t-2.19-9.8a7.79,7.79,0,0,0-13,0q-2.22,3.48-2.21,9.8t2.21,9.82A7.18,7.18,0,0,0,552.19,650.34Z"/><path class="cls-1" d="M394.35,426.21h1.8v30.32H394.3V428.31a7.52,7.52,0,0,1-2.43,1.61,8.22,8.22,0,0,1-2.72.64v-1.9a13.13,13.13,0,0,0,2.84-.86A7.49,7.49,0,0,0,394.35,426.21Z"/><path class="cls-1" d="M573.1,709.16h3.48v20.31h-4.8V714.93a16.34,16.34,0,0,1-1.6.33,8.24,8.24,0,0,1-1.49.11v-4.56a8.37,8.37,0,0,0,2.14-.47A11,11,0,0,0,573.1,709.16Z"/><path class="cls-1" d="M527.18,730.56a7.32,7.32,0,0,1-4-1.1,7.12,7.12,0,0,1-2.69-3.29,16.49,16.49,0,0,1,0-11.09,7.12,7.12,0,0,1,2.69-3.29,7.56,7.56,0,0,1,4-1.08,7.46,7.46,0,0,1,4,1.08,7.2,7.2,0,0,1,2.7,3.29,16.49,16.49,0,0,1,0,11.09,6.94,6.94,0,0,1-6.7,4.39Zm0-2.62a3.93,3.93,0,0,0,3.5-1.9,12.65,12.65,0,0,0,0-10.84,4.16,4.16,0,0,0-7,0,12.56,12.56,0,0,0,0,10.84A3.93,3.93,0,0,0,527.18,727.94Z"/><path class="cls-1" d="M503.58,690.26h1.89v18.9h-2.34V693a6.12,6.12,0,0,1-1.51.76,5.79,5.79,0,0,1-1.58.29v-2.28a7.5,7.5,0,0,0,1.84-.5A6.19,6.19,0,0,0,503.58,690.26Z"/><path class="cls-1" d="M416.46,542.75a6.47,6.47,0,0,1-3.71-1.06,6.82,6.82,0,0,1-2.44-3.21,16.73,16.73,0,0,1,0-10.65,6.84,6.84,0,0,1,2.44-3.18,7.06,7.06,0,0,1,7.41,0,6.93,6.93,0,0,1,2.46,3.18,16.73,16.73,0,0,1,0,10.65,6.92,6.92,0,0,1-2.46,3.21A6.44,6.44,0,0,1,416.46,542.75Zm0-1.62a4.33,4.33,0,0,0,3.91-2.09,13.87,13.87,0,0,0,0-11.77,4.69,4.69,0,0,0-7.79,0,13.69,13.69,0,0,0,0,11.77A4.33,4.33,0,0,0,416.46,541.13Z"/><path class="cls-1" d="M913.46,6.45h15.78V98.52H907.48V32.63c-2.58.63-5,1.13-7.24,1.49a37.43,37.43,0,0,1-6.77.48V13.93a38.08,38.08,0,0,0,9.69-2.11A49.74,49.74,0,0,0,913.46,6.45Z"/><path class="cls-1" d="M721.05,323.33a36.06,36.06,0,0,1-19.14-5q-8.26-5-12.93-15.23t-4.65-25.71q0-15.57,4.65-25.77t12.93-15.2a38.87,38.87,0,0,1,38.14,0q8.26,5,12.92,15.2t4.66,25.77q0,15.51-4.66,25.71T740.05,318.3A35.84,35.84,0,0,1,721.05,323.33Zm0-14.69a16.61,16.61,0,0,0,14.75-8.06q5.24-8.06,5.24-23.22t-5.24-23.29a17.56,17.56,0,0,0-29.61,0q-5.27,8.13-5.27,23.29t5.27,23.22A16.75,16.75,0,0,0,721.05,308.64Z"/><path class="cls-1" d="M795.34,404.1h10.07v87H792.49V419.4a32.18,32.18,0,0,1-6.94,3,28.59,28.59,0,0,1-7.07,1.19V411.1a34.44,34.44,0,0,0,8.6-2.21A34.89,34.89,0,0,0,795.34,404.1Z"/><path class="cls-1" d="M780.21,694.3h8.56V780h-10.6V706.81a27.41,27.41,0,0,1-6.84,3.43,25.39,25.39,0,0,1-7.17,1.33V701.23a35.3,35.3,0,0,0,8.33-2.24A29,29,0,0,0,780.21,694.3Z"/><path class="cls-1" d="M887.35,628.73h4.89v82.49h-5V634.45a20.81,20.81,0,0,1-6.63,4.38,22.64,22.64,0,0,1-7.38,1.74V635.4a35.91,35.91,0,0,0,7.72-2.35A20.32,20.32,0,0,0,887.35,628.73Z"/><path class="cls-1" d="M817.42,130.94a27.32,27.32,0,0,1-13.75-3.42,23.21,23.21,0,0,1-9.4-10.42q-3.4-7-3.4-17.71t3.4-17.84a23.08,23.08,0,0,1,9.4-10.39,27.41,27.41,0,0,1,13.75-3.4A26.83,26.83,0,0,1,831,71.16a23.34,23.34,0,0,1,9.36,10.39q3.42,7,3.42,17.84t-3.42,17.71A23.48,23.48,0,0,1,831,127.52,26.74,26.74,0,0,1,817.42,130.94Zm0-13.1a9.67,9.67,0,0,0,8.37-4.65q3.15-4.66,3.15-13.8t-3.15-13.88a9.64,9.64,0,0,0-8.37-4.75,9.76,9.76,0,0,0-8.57,4.75q-3.14,4.76-3.13,13.88t3.13,13.8A9.8,9.8,0,0,0,817.42,117.84Z"/><path class="cls-1" d="M889.63,140.42h10.44v60.93h-14.4v-43.6c-1.71.42-3.31.75-4.79,1a25,25,0,0,1-4.48.32V145.38a25.35,25.35,0,0,0,6.41-1.4A33.08,33.08,0,0,0,889.63,140.42Z"/><path class="cls-1" d="M875.74,593.72a22.11,22.11,0,0,1-12.08-3.28,21.35,21.35,0,0,1-8.08-9.9q-2.88-6.62-2.88-16.65t2.88-16.61a21.06,21.06,0,0,1,8.08-9.85,24,24,0,0,1,24.09,0,21.24,21.24,0,0,1,8.08,9.85q2.91,6.62,2.9,16.61t-2.9,16.65a21.53,21.53,0,0,1-8.08,9.9A21.91,21.91,0,0,1,875.74,593.72Zm0-7.87a11.79,11.79,0,0,0,10.51-5.69q3.66-5.7,3.66-16.27t-3.66-16.25a12.53,12.53,0,0,0-21,0q-3.66,5.72-3.67,16.25t3.67,16.27A11.78,11.78,0,0,0,875.74,585.85Z"/><path class="cls-1" d="M833.06,493.3h5.67V550h-7V501.58a17.91,17.91,0,0,1-4.52,2.27,16.85,16.85,0,0,1-4.75.88v-6.84a23.51,23.51,0,0,0,5.51-1.48A19.15,19.15,0,0,0,833.06,493.3Z"/><path class="cls-1" d="M783.46,607.56a19.35,19.35,0,0,1-11.11-3.2,20.5,20.5,0,0,1-7.34-9.61q-2.61-6.4-2.61-16t2.61-16a20.44,20.44,0,0,1,7.34-9.54,21.07,21.07,0,0,1,22.23,0,20.52,20.52,0,0,1,7.35,9.54q2.64,6.38,2.64,16t-2.64,16a20.58,20.58,0,0,1-7.35,9.61A19.38,19.38,0,0,1,783.46,607.56Zm0-4.86q7.78,0,11.72-6.28t3.94-17.67q0-11.37-3.94-17.63t-11.72-6.26a12.94,12.94,0,0,0-11.63,6.26q-4,6.25-4,17.63t4,17.67A12.93,12.93,0,0,0,783.46,602.7Z"/><path class="cls-1" d="M975.78,646.91H979v54.58h-3.33v-50.8a13.83,13.83,0,0,1-4.38,2.9,15.12,15.12,0,0,1-4.89,1.15v-3.42a23.61,23.61,0,0,0,5.11-1.56A13.34,13.34,0,0,0,975.78,646.91Z"/><path class="cls-1" d="M825.59,207.75H836v60.93h-14.4V225.07c-1.71.42-3.31.75-4.79,1a25,25,0,0,1-4.48.32V212.7a24.83,24.83,0,0,0,6.41-1.4A32.74,32.74,0,0,0,825.59,207.75Z"/><path class="cls-1" d="M799.4,372.16a13.3,13.3,0,0,1-7-1.85,12.35,12.35,0,0,1-4.75-5.6,27,27,0,0,1,0-18.93,12.28,12.28,0,0,1,4.75-5.59,14.29,14.29,0,0,1,14,0,12.28,12.28,0,0,1,4.75,5.59,27,27,0,0,1,0,18.93,12.35,12.35,0,0,1-4.75,5.6A13.22,13.22,0,0,1,799.4,372.16Zm0-5.41a6.12,6.12,0,0,0,5.43-3q1.92-3,1.92-8.54c0-3.71-.64-6.57-1.92-8.56a6.46,6.46,0,0,0-10.89,0c-1.29,2-1.94,4.85-1.94,8.56s.65,6.57,1.94,8.54A6.15,6.15,0,0,0,799.4,366.75Z"/><path class="cls-1" d="M936.2,561.66h3.7v32h-4.75V567.28a11,11,0,0,1-2.55,1.11,10.26,10.26,0,0,1-2.6.44v-4.6a12.45,12.45,0,0,0,3.16-.81A13,13,0,0,0,936.2,561.66Z"/><path class="cls-1" d="M867.55,449.5a11,11,0,0,1-10.76-7.22,27.48,27.48,0,0,1,0-18.14A11,11,0,0,1,867.55,417a11.66,11.66,0,0,1,6.45,1.79,11.53,11.53,0,0,1,4.31,5.4,27.48,27.48,0,0,1,0,18.14,11,11,0,0,1-10.76,7.22Zm0-3.6a6.83,6.83,0,0,0,6.15-3.31q2.1-3.31,2.1-9.39t-2.1-9.38a7.34,7.34,0,0,0-12.28,0q-2.11,3.3-2.12,9.38t2.12,9.39A6.85,6.85,0,0,0,867.55,445.9Z"/><path class="cls-1" d="M836.06,762.16h3.15v31.5h-3.9v-26.9A10.05,10.05,0,0,1,832.8,768a9.43,9.43,0,0,1-2.64.48v-3.8a13.06,13.06,0,0,0,3.06-.82A10.72,10.72,0,0,0,836.06,762.16Z"/><path class="cls-1" d="M902,295a10.71,10.71,0,0,1-6.17-1.78,11.41,11.41,0,0,1-4.08-5.33,23.86,23.86,0,0,1-1.45-8.89,23.59,23.59,0,0,1,1.45-8.86,11.32,11.32,0,0,1,4.08-5.3,11.66,11.66,0,0,1,12.35,0,11.4,11.4,0,0,1,4.09,5.3A23.37,23.37,0,0,1,913.7,279a23.65,23.65,0,0,1-1.46,8.89,11.49,11.49,0,0,1-4.09,5.33A10.72,10.72,0,0,1,902,295Zm0-2.7a7.19,7.19,0,0,0,6.52-3.49c1.45-2.32,2.18-5.6,2.18-9.81s-.73-7.49-2.18-9.8a7.79,7.79,0,0,0-13,0q-2.21,3.47-2.21,9.8c0,4.21.74,7.49,2.21,9.81A7.18,7.18,0,0,0,902,292.33Z"/><path class="cls-1" d="M744.14,68.19h1.8V98.52h-1.85V70.29a7.76,7.76,0,0,1-2.44,1.62,8.39,8.39,0,0,1-2.71.63v-1.9a13.22,13.22,0,0,0,2.83-.86A7.48,7.48,0,0,0,744.14,68.19Z"/><path class="cls-1" d="M922.88,351.15h3.48v20.31h-4.8V356.92c-.57.14-1.1.25-1.6.33a7.42,7.42,0,0,1-1.49.1v-4.56a8.35,8.35,0,0,0,2.14-.46A11,11,0,0,0,922.88,351.15Z"/><path class="cls-1" d="M931.45,471.88h2.22v19.19h-2.85V475.26a6.81,6.81,0,0,1-1.53.66,6.08,6.08,0,0,1-1.56.27v-2.76a7.52,7.52,0,0,0,3.72-1.55Z"/><path class="cls-1" d="M877,372.55a7.4,7.4,0,0,1-4-1.1,7.15,7.15,0,0,1-2.69-3.3,16.47,16.47,0,0,1,0-11.08,7.07,7.07,0,0,1,2.69-3.29,8,8,0,0,1,8,0,7.13,7.13,0,0,1,2.69,3.29,16.31,16.31,0,0,1,0,11.08,7.21,7.21,0,0,1-2.69,3.3A7.33,7.33,0,0,1,877,372.55Zm0-2.63a3.91,3.91,0,0,0,3.5-1.9,12.53,12.53,0,0,0,0-10.83,4.16,4.16,0,0,0-7,0,12.63,12.63,0,0,0,0,10.83A3.91,3.91,0,0,0,877,369.92Z"/><path class="cls-1" d="M853.36,332.25h1.89v18.9h-2.34V335a5.75,5.75,0,0,1-1.51.75,5.45,5.45,0,0,1-1.58.3v-2.28a8,8,0,0,0,1.84-.5A6.44,6.44,0,0,0,853.36,332.25Z"/><path class="cls-1" d="M766.24,184.74a6.42,6.42,0,0,1-3.7-1.07,6.86,6.86,0,0,1-2.45-3.2,16.73,16.73,0,0,1,0-10.65,6.75,6.75,0,0,1,2.45-3.18,7,7,0,0,1,7.41,0,6.81,6.81,0,0,1,2.45,3.18,16.55,16.55,0,0,1,0,10.65,6.93,6.93,0,0,1-2.45,3.2A6.47,6.47,0,0,1,766.24,184.74Zm0-1.62a4.32,4.32,0,0,0,3.91-2.1,13.85,13.85,0,0,0,0-11.76,4.67,4.67,0,0,0-7.79,0,13.76,13.76,0,0,0,0,11.76A4.32,4.32,0,0,0,766.24,183.12Z"/><path class="cls-1" d="M881.14,472.74h1.08v18.19h-1.11V474a4.64,4.64,0,0,1-1.47,1,5,5,0,0,1-1.62.38v-1.14a7.77,7.77,0,0,0,1.7-.52A4.48,4.48,0,0,0,881.14,472.74Z"/><path class="cls-1" d="M1086,169.44h15.78v92.07H1080V195.62c-2.58.63-5,1.13-7.24,1.49a37.49,37.49,0,0,1-6.77.48V176.92a37.66,37.66,0,0,0,9.69-2.11A49.74,49.74,0,0,0,1086,169.44Z"/><path class="cls-1" d="M1062.14,303.42h10.44v60.93h-14.4V320.74q-2.57.63-4.8,1a24.78,24.78,0,0,1-4.47.32V308.37a24.93,24.93,0,0,0,6.41-1.4A33,33,0,0,0,1062.14,303.42Z"/><path class="cls-1" d="M1048.25,756.71a22.17,22.17,0,0,1-12.09-3.28,21.39,21.39,0,0,1-8.07-9.9q-2.88-6.62-2.88-16.65t2.88-16.61a21.1,21.1,0,0,1,8.07-9.85,22.4,22.4,0,0,1,12.09-3.24,22.15,22.15,0,0,1,12,3.24,21.3,21.3,0,0,1,8.08,9.85q2.9,6.62,2.9,16.61t-2.9,16.65a21.59,21.59,0,0,1-8.08,9.9A21.91,21.91,0,0,1,1048.25,756.71Zm0-7.87a11.76,11.76,0,0,0,10.5-5.69q3.68-5.7,3.67-16.27t-3.67-16.25a12.52,12.52,0,0,0-21,0q-3.67,5.72-3.67,16.25t3.67,16.27A11.78,11.78,0,0,0,1048.25,748.84Z"/><path class="cls-1" d="M1108.71,724.65h3.7v32h-4.75V730.27a11,11,0,0,1-2.55,1.11,10.26,10.26,0,0,1-2.6.44v-4.6a12.45,12.45,0,0,0,3.16-.81A13,13,0,0,0,1108.71,724.65Z"/><path class="cls-1" d="M1074.48,458a10.71,10.71,0,0,1-6.17-1.78,11.41,11.41,0,0,1-4.08-5.33,23.86,23.86,0,0,1-1.45-8.89,23.59,23.59,0,0,1,1.45-8.86,11.32,11.32,0,0,1,4.08-5.3,11.66,11.66,0,0,1,12.35,0,11.4,11.4,0,0,1,4.09,5.3,23.37,23.37,0,0,1,1.46,8.86,23.65,23.65,0,0,1-1.46,8.89,11.49,11.49,0,0,1-4.09,5.33A10.72,10.72,0,0,1,1074.48,458Zm0-2.7a7.19,7.19,0,0,0,6.52-3.49q2.18-3.49,2.18-9.81t-2.18-9.8a7.79,7.79,0,0,0-13,0q-2.22,3.46-2.21,9.8t2.21,9.81A7.18,7.18,0,0,0,1074.48,455.32Z"/><path class="cls-1" d="M1095.39,514.13h3.48v20.32h-4.8V519.91c-.57.14-1.1.25-1.6.33a7.42,7.42,0,0,1-1.49.1v-4.55a8.81,8.81,0,0,0,2.14-.47A11.12,11.12,0,0,0,1095.39,514.13Z"/><path class="cls-1" d="M1104,634.87h2.22v19.19h-2.85V638.25a7.34,7.34,0,0,1-1.53.67,6.53,6.53,0,0,1-1.56.26v-2.76a7.42,7.42,0,0,0,3.72-1.55Z"/><path class="cls-1" d="M1049.47,535.54a7.4,7.4,0,0,1-4-1.1,7.15,7.15,0,0,1-2.69-3.3,16.47,16.47,0,0,1,0-11.08,7,7,0,0,1,2.69-3.29,7.48,7.48,0,0,1,4-1.08,7.35,7.35,0,0,1,4,1.08,7.1,7.1,0,0,1,2.7,3.29,16.47,16.47,0,0,1,0,11.08,6.93,6.93,0,0,1-6.7,4.4Zm0-2.63a3.91,3.91,0,0,0,3.5-1.9,12.56,12.56,0,0,0,0-10.84,4.17,4.17,0,0,0-7,0,12.65,12.65,0,0,0,0,10.84A3.91,3.91,0,0,0,1049.47,532.91Z"/><path class="cls-1" d="M1053.64,635.73h1.08v18.19h-1.11V637a4.6,4.6,0,0,1-1.46,1,5.08,5.08,0,0,1-1.63.38V637.2a7.85,7.85,0,0,0,1.71-.52A4.44,4.44,0,0,0,1053.64,635.73Z"/><path class="cls-1" d="M1045.71,119.81a36,36,0,0,1-19.14-5q-8.26-5-12.92-15.23T1009,73.84q0-15.57,4.66-25.77t12.92-15.2a38.89,38.89,0,0,1,38.15,0q8.27,5,12.92,15.2t4.66,25.77q0,15.5-4.66,25.7t-12.92,15.23A35.76,35.76,0,0,1,1045.71,119.81Zm0-14.69a16.64,16.64,0,0,0,14.76-8.06q5.23-8.06,5.23-23.22t-5.23-23.29a17.55,17.55,0,0,0-29.62,0q-5.26,8.13-5.27,23.29t5.27,23.22A16.79,16.79,0,0,0,1045.71,105.12Z"/><path class="cls-1" d="M1262.87,92.79h10.07v87H1260V108.09a31.74,31.74,0,0,1-6.94,3,28.67,28.67,0,0,1-7.07,1.19V99.8a33.63,33.63,0,0,0,16.86-7Z"/><path class="cls-1" d="M1247.73,383h8.57v85.67h-10.61V395.51a27.18,27.18,0,0,1-6.83,3.43,25.75,25.75,0,0,1-7.17,1.33V389.93a35.78,35.78,0,0,0,8.33-2.24A29,29,0,0,0,1247.73,383Z"/><path class="cls-1" d="M1354.88,317.43h4.89v82.49h-5V323.15a20.81,20.81,0,0,1-6.63,4.38,22.64,22.64,0,0,1-7.38,1.74V324.1a35.91,35.91,0,0,0,7.72-2.35A20.32,20.32,0,0,0,1354.88,317.43Z"/><path class="cls-1" d="M1343.27,282.42a22.14,22.14,0,0,1-12.09-3.28,21.33,21.33,0,0,1-8.07-9.9q-2.89-6.62-2.88-16.65t2.88-16.61a21,21,0,0,1,8.07-9.85,22.38,22.38,0,0,1,12.09-3.24,22.15,22.15,0,0,1,12,3.24,21.3,21.3,0,0,1,8.08,9.85q2.9,6.61,2.9,16.61t-2.9,16.65a21.59,21.59,0,0,1-8.08,9.9A21.91,21.91,0,0,1,1343.27,282.42Zm0-7.87a11.75,11.75,0,0,0,10.5-5.7q3.68-5.69,3.67-16.26t-3.67-16.25a12.52,12.52,0,0,0-21,0q-3.67,5.72-3.67,16.25t3.67,16.26A11.77,11.77,0,0,0,1343.27,274.55Z"/><path class="cls-1" d="M1300.59,182h5.67v56.7h-7V190.28a17.81,17.81,0,0,1-4.53,2.27,16.72,16.72,0,0,1-4.74.88v-6.84a23.54,23.54,0,0,0,5.51-1.49A19.1,19.1,0,0,0,1300.59,182Z"/><path class="cls-1" d="M1251,296.25a19.38,19.38,0,0,1-11.12-3.19,20.48,20.48,0,0,1-7.33-9.61q-2.61-6.4-2.61-16t2.61-15.95a20.42,20.42,0,0,1,7.33-9.54,21.07,21.07,0,0,1,22.23,0,20.54,20.54,0,0,1,7.36,9.54q2.64,6.38,2.63,15.95t-2.63,16a20.59,20.59,0,0,1-7.36,9.61A19.35,19.35,0,0,1,1251,296.25Zm0-4.86q7.79,0,11.72-6.27t3.94-17.67q0-11.38-3.94-17.64T1251,243.56a12.93,12.93,0,0,0-11.63,6.25q-4,6.25-4,17.64t4,17.67A12.92,12.92,0,0,0,1251,291.39Z"/><path class="cls-1" d="M1150.26,4.22h10.44V65.15h-14.4V21.55q-2.57.63-4.8,1a24.77,24.77,0,0,1-4.47.31V9.17a24.91,24.91,0,0,0,6.41-1.39A33.08,33.08,0,0,0,1150.26,4.22Z"/><path class="cls-1" d="M1266.93,60.85a13.21,13.21,0,0,1-7-1.85,12.3,12.3,0,0,1-4.75-5.6,22.81,22.81,0,0,1-1.71-9.45,22.88,22.88,0,0,1,1.71-9.47,12.28,12.28,0,0,1,4.75-5.59,14.29,14.29,0,0,1,14,0,12.33,12.33,0,0,1,4.75,5.59,22.88,22.88,0,0,1,1.71,9.47,22.81,22.81,0,0,1-1.71,9.45,12.36,12.36,0,0,1-4.75,5.6A13.13,13.13,0,0,1,1266.93,60.85Zm0-5.4a6.09,6.09,0,0,0,5.42-3q1.94-3,1.93-8.54c0-3.71-.64-6.57-1.93-8.56a6.44,6.44,0,0,0-10.88,0c-1.3,2-1.94,4.85-1.94,8.56s.64,6.57,1.94,8.54A6.15,6.15,0,0,0,1266.93,55.45Z"/><path class="cls-1" d="M1403.73,250.36h3.7v32h-4.75V256a12.33,12.33,0,0,1-2.55,1.11,10.34,10.34,0,0,1-2.6.44v-4.6a12.45,12.45,0,0,0,3.16-.81A13,13,0,0,0,1403.73,250.36Z"/><path class="cls-1" d="M1335.08,138.2a11.58,11.58,0,0,1-6.47-1.8,11.74,11.74,0,0,1-4.3-5.42,23.45,23.45,0,0,1-1.53-9.08,23.34,23.34,0,0,1,1.53-9.06,11.55,11.55,0,0,1,21.53,0,23.33,23.33,0,0,1,1.54,9.06,23.44,23.44,0,0,1-1.54,9.08,11,11,0,0,1-10.76,7.22Zm0-3.6a6.83,6.83,0,0,0,6.15-3.31c1.39-2.21,2.1-5.34,2.1-9.39s-.71-7.18-2.1-9.39a7.35,7.35,0,0,0-12.28,0c-1.42,2.21-2.12,5.34-2.12,9.39s.7,7.18,2.12,9.39A6.85,6.85,0,0,0,1335.08,134.6Z"/><path class="cls-1" d="M1303.59,450.86h3.15v31.5h-3.9v-26.9a9.91,9.91,0,0,1-2.52,1.26,9,9,0,0,1-2.63.49v-3.8a13.06,13.06,0,0,0,3.06-.82A10.72,10.72,0,0,0,1303.59,450.86Z"/><path class="cls-1" d="M1390.41,39.84h3.48V60.15h-4.8V45.62c-.57.14-1.1.25-1.6.33a8.23,8.23,0,0,1-1.49.1V41.49a8.35,8.35,0,0,0,2.14-.46A11.12,11.12,0,0,0,1390.41,39.84Z"/><path class="cls-1" d="M1205.08,517.1a7.93,7.93,0,0,1-4.22-1.11,7.32,7.32,0,0,1-2.85-3.36,16.18,16.18,0,0,1,0-11.36,7.29,7.29,0,0,1,2.85-3.35,8.59,8.59,0,0,1,8.41,0,7.29,7.29,0,0,1,2.85,3.35,16.18,16.18,0,0,1,0,11.36,7.32,7.32,0,0,1-2.85,3.36A7.88,7.88,0,0,1,1205.08,517.1Zm0-3.24a3.65,3.65,0,0,0,3.25-1.78,9.4,9.4,0,0,0,1.16-5.12,9.52,9.52,0,0,0-1.16-5.14,3.66,3.66,0,0,0-3.25-1.79,3.71,3.71,0,0,0-3.28,1.79,9.52,9.52,0,0,0-1.16,5.14,9.4,9.4,0,0,0,1.16,5.12A3.7,3.7,0,0,0,1205.08,513.86Z"/><path class="cls-1" d="M1399,160.58h2.22v19.19h-2.85V164a6.81,6.81,0,0,1-1.53.66,6.08,6.08,0,0,1-1.56.27v-2.76a7.42,7.42,0,0,0,3.72-1.55Z"/><path class="cls-1" d="M1344.49,61.24a7.39,7.39,0,0,1-4-1.09,7.15,7.15,0,0,1-2.69-3.3,14,14,0,0,1-1-5.55,13.94,13.94,0,0,1,1-5.54,7,7,0,0,1,2.69-3.28,7.48,7.48,0,0,1,4-1.08,7.37,7.37,0,0,1,4,1.08,7.12,7.12,0,0,1,2.7,3.28,13.94,13.94,0,0,1,1,5.54,14,14,0,0,1-1,5.55,6.9,6.9,0,0,1-6.7,4.39Zm0-2.62a3.91,3.91,0,0,0,3.5-1.9,10,10,0,0,0,1.22-5.42,10,10,0,0,0-1.22-5.42,4.17,4.17,0,0,0-7,0,10,10,0,0,0-1.23,5.42,10,10,0,0,0,1.23,5.42A3.91,3.91,0,0,0,1344.49,58.62Z"/><path class="cls-1" d="M1320.89,20.94h1.89v18.9h-2.34V23.7a5.79,5.79,0,0,1-1.51.76,5.43,5.43,0,0,1-1.58.29V22.47a7.94,7.94,0,0,0,1.84-.49A6.49,6.49,0,0,0,1320.89,20.94Z"/><path class="cls-1" d="M1348.66,161.44h1.08v18.19h-1.11V162.7a4.41,4.41,0,0,1-1.46,1,4.85,4.85,0,0,1-1.63.39v-1.14a8.44,8.44,0,0,0,1.71-.52A4.61,4.61,0,0,0,1348.66,161.44Z"/><path class="cls-1" d="M1349.82,700.85a27.25,27.25,0,0,1-13.74-3.42,23.23,23.23,0,0,1-9.41-10.42q-3.4-7-3.4-17.71t3.4-17.84a23.07,23.07,0,0,1,9.41-10.4,27.44,27.44,0,0,1,13.74-3.39,26.93,26.93,0,0,1,13.59,3.39,23.37,23.37,0,0,1,9.36,10.4q3.42,7,3.42,17.84T1372.77,687a23.53,23.53,0,0,1-9.36,10.42A26.74,26.74,0,0,1,1349.82,700.85Zm0-13.1a9.66,9.66,0,0,0,8.37-4.66q3.15-4.65,3.15-13.79t-3.15-13.88a9.62,9.62,0,0,0-8.37-4.75,9.74,9.74,0,0,0-8.57,4.75q-3.12,4.74-3.13,13.88t3.13,13.79A9.78,9.78,0,0,0,1349.82,687.75Z"/><path class="cls-1" d="M1422,710.33h10.44v60.93h-14.4v-43.6c-1.71.42-3.31.75-4.79,1a24.94,24.94,0,0,1-4.48.31V715.28a24.82,24.82,0,0,0,6.41-1.39A32.83,32.83,0,0,0,1422,710.33Z"/><path class="cls-1" d="M1276.54,638.1h1.8v30.33h-1.85V640.2a7.57,7.57,0,0,1-2.44,1.61,8.16,8.16,0,0,1-2.71.64v-1.9a13.31,13.31,0,0,0,2.84-.86A7.44,7.44,0,0,0,1276.54,638.1Z"/><path class="cls-1" d="M1298.64,754.64a6.44,6.44,0,0,1-3.7-1.06,6.86,6.86,0,0,1-2.45-3.2,14.28,14.28,0,0,1-.87-5.34,14,14,0,0,1,.87-5.31,6.75,6.75,0,0,1,2.45-3.18,7,7,0,0,1,7.41,0,6.75,6.75,0,0,1,2.45,3.18,13.83,13.83,0,0,1,.88,5.31,14.07,14.07,0,0,1-.88,5.34,6.86,6.86,0,0,1-2.45,3.2A6.47,6.47,0,0,1,1298.64,754.64Zm0-1.62a4.3,4.3,0,0,0,3.91-2.09,13.87,13.87,0,0,0,0-11.77,4.68,4.68,0,0,0-7.78,0,13.69,13.69,0,0,0,0,11.77A4.28,4.28,0,0,0,1298.64,753Z"/><rect class="cls-1" x="197.8" width="21.76" height="49.62"/><rect class="cls-1" x="417.05" width="7.02" height="26.81"/><path class="cls-1" d="M43.29,202.69q-4.65-10.2-12.91-15.2a36,36,0,0,0-19-5A39.55,39.55,0,0,0,0,184.08v17A16.67,16.67,0,0,1,11.37,197a16.59,16.59,0,0,1,14.75,8.13q5.25,8.13,5.24,23.29t-5.24,23.22a16.63,16.63,0,0,1-14.75,8.06,16.73,16.73,0,0,1-11.37-4v17.1a39.55,39.55,0,0,0,11.37,1.6,35.87,35.87,0,0,0,19-5q8.25-5,12.91-15.24T48,228.46Q48,212.89,43.29,202.69Z"/><path class="cls-1" d="M442.71,777.41V800h12.92V762.11H445.56a33.87,33.87,0,0,1-16.86,7v12.51a28.67,28.67,0,0,0,7.07-1.19A32.23,32.23,0,0,0,442.71,777.41Z"/><path class="cls-1" d="M511.29,800a18.37,18.37,0,0,1-1.77-8.78c0-4.05.7-7.18,2.12-9.39a7.35,7.35,0,0,1,12.28,0c1.39,2.21,2.1,5.34,2.1,9.39a18.62,18.62,0,0,1-1.76,8.78h4.38a23.67,23.67,0,0,0,1.42-8.78,23.27,23.27,0,0,0-1.53-9.06,11.54,11.54,0,0,0-21.53,0,23.26,23.26,0,0,0-1.54,9.06,23.66,23.66,0,0,0,1.43,8.78Z"/><path class="cls-1" d="M923.18,800h9.41c-.32-.44-.64-.89-.94-1.36q-6-9.48-6-26.69t6-26.65q6-9.45,17.58-9.46,11.76,0,17.72,9.46T972.89,772q0,17.2-5.94,26.69c-.3.47-.61.92-.93,1.36h9.29a42,42,0,0,0,1.83-3.87q4-9.69,4-24.18t-4-24.1q-4-9.63-11.11-14.42a31.86,31.86,0,0,0-33.6,0q-7.14,4.8-11.08,14.42T917.41,772q0,14.49,3.94,24.18A39.55,39.55,0,0,0,923.18,800Z"/><path class="cls-1" d="M1056.54,800a21.36,21.36,0,0,0,3.18-2.56V800h5v-8.28h-4.89a20.32,20.32,0,0,1-6.43,4.32,35.91,35.91,0,0,1-7.72,2.35V800Z"/><path class="cls-1" d="M1358,777.66a32.94,32.94,0,0,1-6.81,3.55,25,25,0,0,1-6.42,1.4v13.68a24.89,24.89,0,0,0,4.48-.32c1.49-.24,3.08-.57,4.79-1v5h14.4V777.66Z"/><path class="cls-1" d="M1440.42,580a37.12,37.12,0,0,1-13.78,3.88v20.67a38.42,38.42,0,0,0,6.77-.48q3.25-.53,7-1.44Z"/><path class="cls-1" d="M1440.42,460.65q0,17.21-6,26.69t-17.71,9.49q-11.57,0-17.58-9.49t-6-26.69q0-17.2,6-26.66t17.58-9.45q11.76,0,17.71,9.45t6,26.66V428.86a27.23,27.23,0,0,0-6.87-6.73,31.78,31.78,0,0,0-33.59,0q-7.14,4.78-11.08,14.41t-4,24.11q0,14.49,4,24.17T1400,499.34a31.62,31.62,0,0,0,33.59,0,27.24,27.24,0,0,0,6.87-6.77Z"/><path class="cls-1" d="M1440.42,337.78a13.27,13.27,0,0,1-1.36.68A23.76,23.76,0,0,1,1434,340v3.42a15,15,0,0,0,4.88-1.14,12.44,12.44,0,0,0,1.59-.8Z"/></svg>