<svg xmlns="http://www.w3.org/2000/svg" width="374.16" height="812.03" viewBox="0 0 374.16 812.03">
  <g id="Binary_background_mobile" opacity="0.09">
    <path id="Path_234" data-name="Path 234" d="M86.51,355.19H96.57v87H83.65v-71.7a31.671,31.671,0,0,1-6.93,3,28.669,28.669,0,0,1-7.07,1.19V362.2a35,35,0,0,0,8.6-2.21,34.6,34.6,0,0,0,8.26-4.8Z" transform="translate(-0.84)" fill="#45a82c"/>
    <path id="Path_235" data-name="Path 235" d="M86.51,355.19H96.57v87H83.65v-71.7a31.671,31.671,0,0,1-6.93,3,28.669,28.669,0,0,1-7.07,1.19V362.2a35,35,0,0,0,8.6-2.21,34.6,34.6,0,0,0,8.26-4.8Z" transform="translate(-0.84)" fill="#45a82c"/>
    <path id="Path_236" data-name="Path 236" d="M71.37,645.39h8.57v85.68H69.33V657.91a27.18,27.18,0,0,1-6.83,3.43,25.748,25.748,0,0,1-7.18,1.33V652.33a36,36,0,0,0,8.33-2.24,29.08,29.08,0,0,0,7.72-4.7Z" transform="translate(-0.84)" fill="#45a82c"/>
    <path id="Path_237" data-name="Path 237" d="M240.4,766.57a29.26,29.26,0,0,1-16.8-4.83q-7.14-4.83-11.08-14.52t-4-24.17q0-14.49,4-24.11t11.08-14.41a31.78,31.78,0,0,1,33.59,0q7.14,4.79,11.12,14.41t4,24.11q0,14.48-4,24.17t-11.12,14.52a29.25,29.25,0,0,1-16.79,4.83Zm0-7.35q11.76,0,17.71-9.48t5.95-26.69q0-17.2-5.95-26.66t-17.71-9.45q-11.57,0-17.58,9.45t-6,26.66q0,17.21,6,26.69t17.58,9.48Z" transform="translate(-0.84)" fill="#45a82c"/>
    <path id="Path_238" data-name="Path 238" d="M178.51,579.83h4.9v82.49h-5V585.54a20.671,20.671,0,0,1-6.63,4.39,22.432,22.432,0,0,1-7.38,1.73V586.5a36.656,36.656,0,0,0,7.72-2.35,20.5,20.5,0,0,0,6.39-4.32Z" transform="translate(-0.84)" fill="#45a82c"/>
    <path id="Path_239" data-name="Path 239" d="M112.79,79.74A27.26,27.26,0,0,1,99,76.32a23.26,23.26,0,0,1-9.41-10.41q-3.39-7-3.39-17.71t3.39-17.84A23.13,23.13,0,0,1,99,20a27.46,27.46,0,0,1,13.75-3.4A27,27,0,0,1,126.38,20a23.37,23.37,0,0,1,9.36,10.4q3.4,7,3.42,17.84t-3.42,17.71a23.5,23.5,0,0,1-9.36,10.41,26.77,26.77,0,0,1-13.59,3.38Zm0-13.09A9.68,9.68,0,0,0,121.16,62c2.09-3.11,3.15-7.7,3.15-13.79s-1.06-10.72-3.15-13.88a9.62,9.62,0,0,0-8.37-4.75,9.76,9.76,0,0,0-8.58,4.75q-3.12,4.74-3.12,13.88T104.21,62a9.82,9.82,0,0,0,8.58,4.65Z" transform="translate(-0.84)" fill="#45a82c"/>
    <path id="Path_240" data-name="Path 240" d="M185,89.23h10.44v60.93H181V106.55c-1.71.43-3.3.75-4.79,1a24,24,0,0,1-4.48.32V94.18a25,25,0,0,0,6.42-1.4A32.46,32.46,0,0,0,185,89.23Z" transform="translate(-0.84)" fill="#45a82c"/>
    <path id="Path_241" data-name="Path 241" d="M166.9,544.82a22.141,22.141,0,0,1-12.08-3.29,21.35,21.35,0,0,1-8.08-9.9Q143.86,525,143.86,515t2.88-16.6a21.09,21.09,0,0,1,8.08-9.86,24,24,0,0,1,24.1,0A21.33,21.33,0,0,1,187,498.4q2.9,6.62,2.9,16.6T187,531.63a21.59,21.59,0,0,1-8.08,9.9,22,22,0,0,1-12.02,3.29Zm0-7.88a11.77,11.77,0,0,0,10.51-5.69q3.66-5.68,3.67-16.27t-3.67-16.24a12.51,12.51,0,0,0-21,0q-3.68,5.72-3.67,16.24t3.67,16.27A11.74,11.74,0,0,0,166.9,536.94Z" transform="translate(-0.84)" fill="#45a82c"/>
    <path id="Path_242" data-name="Path 242" d="M124.23,444.4h5.67v56.7h-7V452.68a17.809,17.809,0,0,1-4.53,2.27,16.721,16.721,0,0,1-4.74.88V449a23.669,23.669,0,0,0,5.51-1.49,19.259,19.259,0,0,0,5.09-3.11Z" transform="translate(-0.84)" fill="#45a82c"/>
    <path id="Path_243" data-name="Path 243" d="M74.63,558.65a19.38,19.38,0,0,1-11.12-3.19,20.53,20.53,0,0,1-7.33-9.61q-2.61-6.42-2.61-16t2.61-16a20.32,20.32,0,0,1,7.33-9.54,19.44,19.44,0,0,1,11.12-3.17,19.41,19.41,0,0,1,11.11,3.17,20.5,20.5,0,0,1,7.36,9.54q2.63,6.36,2.63,16t-2.63,16a20.71,20.71,0,0,1-7.36,9.61A19.35,19.35,0,0,1,74.63,558.65Zm0-4.86q7.78,0,11.72-6.28t3.94-17.66q0-11.39-3.94-17.64T74.63,506A13,13,0,0,0,63,512.21q-4,6.25-4,17.64t4,17.66a12.94,12.94,0,0,0,11.63,6.28Z" transform="translate(-0.84)" fill="#45a82c"/>
    <path id="Path_244" data-name="Path 244" d="M267,598h3.24v54.59h-3.33V601.78a13.79,13.79,0,0,1-4.39,2.91,15,15,0,0,1-4.88,1.14v-3.42a23.76,23.76,0,0,0,5.11-1.55A13.48,13.48,0,0,0,267,598Z" transform="translate(-0.84)" fill="#45a82c"/>
    <path id="Path_245" data-name="Path 245" d="M121,156.55h10.4v60.93H117v-43.6c-1.71.42-3.31.75-4.79,1a24.94,24.94,0,0,1-4.48.31V161.5a24.91,24.91,0,0,0,6.41-1.39,32.829,32.829,0,0,0,6.86-3.56Z" transform="translate(-0.84)" fill="#45a82c"/>
    <path id="Path_246" data-name="Path 246" d="M90.57,323.25a13.28,13.28,0,0,1-7-1.85,12.24,12.24,0,0,1-4.75-5.6,27,27,0,0,1,0-18.92,12.17,12.17,0,0,1,4.75-5.59,14.27,14.27,0,0,1,14,0,12.17,12.17,0,0,1,4.75,5.59,26.87,26.87,0,0,1,0,18.92,12.24,12.24,0,0,1-4.75,5.6,13.16,13.16,0,0,1-7,1.85Zm0-5.4a6.11,6.11,0,0,0,5.42-3c1.28-2,1.93-4.82,1.93-8.54s-.65-6.57-1.93-8.56a6.1,6.1,0,0,0-5.42-3,6.17,6.17,0,0,0-5.47,3q-1.93,3-1.93,8.56c0,3.72.64,6.56,1.93,8.54A6.18,6.18,0,0,0,90.57,317.85Z" transform="translate(-0.84)" fill="#45a82c"/>
    <path id="Path_247" data-name="Path 247" d="M227.37,512.75h3.7v32h-4.75V518.38a12.33,12.33,0,0,1-2.55,1.11,10.343,10.343,0,0,1-2.6.44v-4.6a12.31,12.31,0,0,0,6.2-2.58Z" transform="translate(-0.84)" fill="#45a82c"/>
    <path id="Path_248" data-name="Path 248" d="M158.71,400.6a11.57,11.57,0,0,1-6.46-1.8,11.74,11.74,0,0,1-4.3-5.42,27.48,27.48,0,0,1,0-18.14,11.55,11.55,0,0,1,21.53,0,27.65,27.65,0,0,1,0,18.14,11.71,11.71,0,0,1-4.32,5.42A11.59,11.59,0,0,1,158.71,400.6Zm0-3.6a6.83,6.83,0,0,0,6.15-3.31q2.1-3.31,2.1-9.39t-2.1-9.39a7.34,7.34,0,0,0-12.27,0q-2.13,3.31-2.13,9.39t2.13,9.39a6.83,6.83,0,0,0,6.12,3.31Z" transform="translate(-0.84)" fill="#45a82c"/>
    <path id="Path_249" data-name="Path 249" d="M127.22,713.26h3.15v31.5h-3.9v-26.9a9.847,9.847,0,0,1-2.51,1.26,9,9,0,0,1-2.64.49v-3.8a13.281,13.281,0,0,0,3.07-.82,10.67,10.67,0,0,0,2.83-1.73Z" transform="translate(-0.84)" fill="#45a82c"/>
    <path id="Path_250" data-name="Path 250" d="M193.14,246.12a10.79,10.79,0,0,1-6.18-1.77,11.31,11.31,0,0,1-4.07-5.34,27.89,27.89,0,0,1,0-17.75A11.29,11.29,0,0,1,187,216a11.71,11.71,0,0,1,12.35,0,11.38,11.38,0,0,1,4.09,5.3,27.7,27.7,0,0,1,0,17.75,11.4,11.4,0,0,1-4.09,5.34,10.78,10.78,0,0,1-6.21,1.73Zm0-2.7a7.2,7.2,0,0,0,6.51-3.48q2.19-3.49,2.19-9.82t-2.19-9.8a7.79,7.79,0,0,0-13,0q-2.22,3.48-2.22,9.8t2.22,9.82a7.18,7.18,0,0,0,6.49,3.48Z" transform="translate(-0.84)" fill="#45a82c"/>
    <path id="Path_251" data-name="Path 251" d="M35.3,19.29h1.8V49.62H35.25V21.39A7.57,7.57,0,0,1,32.81,23a8.16,8.16,0,0,1-2.71.64v-1.9a13.31,13.31,0,0,0,2.84-.86A7.44,7.44,0,0,0,35.3,19.29Z" transform="translate(-0.84)" fill="#45a82c"/>
    <path id="Path_252" data-name="Path 252" d="M214.05,302.24h3.48v20.31h-4.8V308c-.57.14-1.11.25-1.6.33a8.292,8.292,0,0,1-1.49.1v-4.56a8.188,8.188,0,0,0,2.13-.46,10.921,10.921,0,0,0,2.28-1.17Z" transform="translate(-0.84)" fill="#45a82c"/>
    <path id="Path_253" data-name="Path 253" d="M28.72,779.5a8,8,0,0,1-4.23-1.11A7.439,7.439,0,0,1,21.64,775a16.32,16.32,0,0,1,0-11.36,7.36,7.36,0,0,1,2.85-3.35,8,8,0,0,1,4.23-1.1,7.9,7.9,0,0,1,4.19,1.1,7.36,7.36,0,0,1,2.85,3.35,16.18,16.18,0,0,1,0,11.36,7.44,7.44,0,0,1-2.85,3.36,7.9,7.9,0,0,1-4.19,1.14Zm0-3.24A3.67,3.67,0,0,0,32,774.48a11.92,11.92,0,0,0,0-10.26,3.64,3.64,0,0,0-3.25-1.79,3.68,3.68,0,0,0-3.28,1.79,11.92,11.92,0,0,0,0,10.26,3.71,3.71,0,0,0,3.25,1.78Z" transform="translate(-0.84)" fill="#45a82c"/>
    <path id="Path_254" data-name="Path 254" d="M222.61,423h2.22v19.18H222V426.35a6.85,6.85,0,0,1-1.53.67,6.061,6.061,0,0,1-1.56.26v-2.76a7.289,7.289,0,0,0,3.72-1.54Z" transform="translate(-0.84)" fill="#45a82c"/>
    <path id="Path_255" data-name="Path 255" d="M168.13,323.64a7.37,7.37,0,0,1-4-1.09,7.09,7.09,0,0,1-2.69-3.3,16.49,16.49,0,0,1,0-11.09,7,7,0,0,1,2.69-3.28,7.45,7.45,0,0,1,4-1.08,7.37,7.37,0,0,1,4,1.08,7,7,0,0,1,2.69,3.28,16.33,16.33,0,0,1,0,11.09,7.15,7.15,0,0,1-2.69,3.3,7.29,7.29,0,0,1-4,1.09Zm0-2.62a3.94,3.94,0,0,0,3.5-1.9,12.65,12.65,0,0,0,0-10.84,4.18,4.18,0,0,0-7,0,12.65,12.65,0,0,0,0,10.84,4,4,0,0,0,3.5,1.88Z" transform="translate(-0.84)" fill="#45a82c"/>
    <path id="Path_256" data-name="Path 256" d="M144.53,283.34h1.89v18.9h-2.34V286.1a6.3,6.3,0,0,1-1.51.76,5.862,5.862,0,0,1-1.58.29v-2.28a7.74,7.74,0,0,0,1.83-.49,6.379,6.379,0,0,0,1.71-1.04Z" transform="translate(-0.84)" fill="#45a82c"/>
    <path id="Path_257" data-name="Path 257" d="M57.41,135.83a6.47,6.47,0,0,1-3.71-1.06,6.82,6.82,0,0,1-2.44-3.21,14.19,14.19,0,0,1-.87-5.33,14,14,0,0,1,.87-5.31,6.82,6.82,0,0,1,2.44-3.19,7.06,7.06,0,0,1,7.41,0,6.83,6.83,0,0,1,2.45,3.19,13.83,13.83,0,0,1,.88,5.31,14,14,0,0,1-.88,5.33,6.84,6.84,0,0,1-2.45,3.21,6.44,6.44,0,0,1-3.7,1.06Zm0-1.62a4.29,4.29,0,0,0,3.9-2.09,13.78,13.78,0,0,0,0-11.77,4.68,4.68,0,0,0-7.78,0,13.69,13.69,0,0,0,0,11.77A4.3,4.3,0,0,0,57.41,134.21Z" transform="translate(-0.84)" fill="#45a82c"/>
    <path id="Path_258" data-name="Path 258" d="M172.3,423.83h1.08V442h-1.11V425.09a4.55,4.55,0,0,1-1.46,1,4.909,4.909,0,0,1-1.63.39V425.3a7.589,7.589,0,0,0,1.7-.51A4.4,4.4,0,0,0,172.3,423.83Z" transform="translate(-0.84)" fill="#45a82c"/>
    <path id="Path_259" data-name="Path 259" d="M274.42,282.28a29.26,29.26,0,0,1-16.8-4.83q-7.14-4.83-11.09-14.52t-3.94-24.17q0-14.49,3.94-24.11t11.09-14.42a31.84,31.84,0,0,1,33.59,0q7.14,4.8,11.12,14.42t4,24.11q0,14.48-4,24.17t-11.12,14.52a29.25,29.25,0,0,1-16.79,4.83Zm0-7.35q11.76,0,17.71-9.48t5.95-26.69q0-17.2-5.95-26.66t-17.71-9.45q-11.57,0-17.58,9.45t-6,26.66q0,17.2,6,26.69T274.42,274.93Z" transform="translate(-0.84)" fill="#45a82c"/>
    <path id="Path_260" data-name="Path 260" d="M216.73,93.25h4.9v82.48h-5V99a20.84,20.84,0,0,1-6.63,4.39,22.62,22.62,0,0,1-7.38,1.73V99.91a36.63,36.63,0,0,0,7.72-2.34,20.5,20.5,0,0,0,6.39-4.32Z" transform="translate(-0.84)" fill="#45a82c"/>
    <path id="Path_261" data-name="Path 261" d="M305.17,111.42h3.24V166h-3.33V115.2a13.59,13.59,0,0,1-4.39,2.9,14.75,14.75,0,0,1-4.88,1.15v-3.42a24.329,24.329,0,0,0,5.11-1.55,13.65,13.65,0,0,0,4.25-2.86Z" transform="translate(-0.84)" fill="#45a82c"/>
    <path id="Path_262" data-name="Path 262" d="M323.73,305.21a8.05,8.05,0,0,1-4.22-1.11,7.44,7.44,0,0,1-2.85-3.36,16.18,16.18,0,0,1,0-11.36,7.36,7.36,0,0,1,2.85-3.35,8.61,8.61,0,0,1,8.42,0,7.36,7.36,0,0,1,2.85,3.35,16.32,16.32,0,0,1,0,11.36,7.44,7.44,0,0,1-2.85,3.36A8,8,0,0,1,323.73,305.21Zm0-3.24a3.69,3.69,0,0,0,3.26-1.78,12,12,0,0,0,0-10.26,3.87,3.87,0,0,0-6.53,0,11.83,11.83,0,0,0,0,10.26,3.69,3.69,0,0,0,3.27,1.81Z" transform="translate(-0.84)" fill="#45a82c"/>
    <path id="Path_263" data-name="Path 263" d="M275.48,410a27.32,27.32,0,0,1-13.75-3.42,23.24,23.24,0,0,1-9.4-10.41q-3.41-7-3.4-17.71t3.4-17.84a23.11,23.11,0,0,1,9.4-10.4,27.51,27.51,0,0,1,13.75-3.4,26.93,26.93,0,0,1,13.59,3.4,23.37,23.37,0,0,1,9.36,10.4q3.42,7,3.42,17.84t-3.42,17.71a23.5,23.5,0,0,1-9.36,10.41A26.74,26.74,0,0,1,275.48,410Zm0-13.09a9.66,9.66,0,0,0,8.37-4.66Q287,387.6,287,378.46t-3.15-13.88a9.62,9.62,0,0,0-8.37-4.75,9.74,9.74,0,0,0-8.57,4.75q-3.14,4.74-3.13,13.88t3.13,13.79a9.78,9.78,0,0,0,8.57,4.61Z" transform="translate(-0.84)" fill="#45a82c"/>
    <path id="Path_264" data-name="Path 264" d="M347.69,419.44h10.44v60.93h-14.4v-43.6c-1.71.42-3.31.75-4.8,1a23.9,23.9,0,0,1-4.47.32v-13.7a24.91,24.91,0,0,0,6.41-1.39A32.83,32.83,0,0,0,347.69,419.44Z" transform="translate(-0.84)" fill="#45a82c"/>
    <path id="Path_265" data-name="Path 265" d="M283.65,486.76h10.44v60.93h-14.4v-43.6c-1.71.42-3.31.75-4.79,1a24.943,24.943,0,0,1-4.48.31V491.71a24.822,24.822,0,0,0,6.41-1.39,32.829,32.829,0,0,0,6.82-3.56Z" transform="translate(-0.84)" fill="#45a82c"/>
    <path id="Path_266" data-name="Path 266" d="M306.46,740.17a13.3,13.3,0,0,1-7-1.85,12.3,12.3,0,0,1-4.75-5.6,27,27,0,0,1,0-18.93,12.2,12.2,0,0,1,4.75-5.58,14.29,14.29,0,0,1,14,0,12.2,12.2,0,0,1,4.75,5.58,27,27,0,0,1,0,18.93,12.3,12.3,0,0,1-4.75,5.6,13.219,13.219,0,0,1-7,1.85Zm0-5.4a6.14,6.14,0,0,0,5.43-3c1.28-2,1.92-4.82,1.92-8.54s-.64-6.57-1.92-8.56a6.45,6.45,0,0,0-10.89,0q-1.94,3-1.94,8.56c0,3.72.65,6.56,1.94,8.54a6.17,6.17,0,0,0,5.46,3Z" transform="translate(-0.84)" fill="#45a82c"/>
    <path id="Path_267" data-name="Path 267" d="M360,574a10.78,10.78,0,0,1-6.17-1.77,11.44,11.44,0,0,1-4.08-5.34,27.89,27.89,0,0,1,0-17.75,11.37,11.37,0,0,1,4.08-5.3,11.71,11.71,0,0,1,12.35,0,11.45,11.45,0,0,1,4.09,5.3,27.7,27.7,0,0,1,0,17.75,11.52,11.52,0,0,1-4.09,5.34A10.79,10.79,0,0,1,360,574Zm0-2.7a7.2,7.2,0,0,0,6.52-3.48q2.18-3.5,2.18-9.82t-2.18-9.8a7.8,7.8,0,0,0-13,0q-2.2,3.48-2.21,9.8t2.21,9.82a7.19,7.19,0,0,0,6.48,3.52Z" transform="translate(-0.84)" fill="#45a82c"/>
    <path id="Path_268" data-name="Path 268" d="M202.2,347.21H204v30.32h-1.85V349.31a7.57,7.57,0,0,1-2.44,1.61,8.161,8.161,0,0,1-2.71.64v-1.9a13.218,13.218,0,0,0,2.83-.86,7.65,7.65,0,0,0,2.37-1.59Z" transform="translate(-0.84)" fill="#45a82c"/>
    <path id="Path_269" data-name="Path 269" d="M159,790.56a7.319,7.319,0,0,1-4-1.1,7.12,7.12,0,0,1-2.69-3.29,16.49,16.49,0,0,1,0-11.09,7.12,7.12,0,0,1,2.69-3.29,8,8,0,0,1,8,0,7.18,7.18,0,0,1,2.69,3.29,16.33,16.33,0,0,1,0,11.09,6.92,6.92,0,0,1-6.7,4.39Zm0-2.62a3.93,3.93,0,0,0,3.5-1.9,12.56,12.56,0,0,0,0-10.84,4.16,4.16,0,0,0-7,0,12.65,12.65,0,0,0,0,10.84,3.93,3.93,0,0,0,3.5,1.9Z" transform="translate(-0.84)" fill="#45a82c"/>
    <path id="Path_270" data-name="Path 270" d="M360.42,700.26h1.89v18.9H360V703a6.12,6.12,0,0,1-1.51.76,5.792,5.792,0,0,1-1.58.29v-2.28a7.5,7.5,0,0,0,1.84-.5,6.188,6.188,0,0,0,1.67-1.01Z" transform="translate(-0.84)" fill="#45a82c"/>
    <path id="Path_271" data-name="Path 271" d="M224.3,463.75a6.44,6.44,0,0,1-3.7-1.06,6.84,6.84,0,0,1-2.45-3.21,16.73,16.73,0,0,1,0-10.65,6.85,6.85,0,0,1,2.45-3.18,7.06,7.06,0,0,1,7.41,0,6.92,6.92,0,0,1,2.45,3.18,16.55,16.55,0,0,1,0,10.65,6.9,6.9,0,0,1-2.45,3.21,6.47,6.47,0,0,1-3.71,1.06Zm0-1.62a4.33,4.33,0,0,0,3.91-2.09,13.87,13.87,0,0,0,0-11.77,4.69,4.69,0,0,0-7.79,0,13.78,13.78,0,0,0,0,11.77A4.33,4.33,0,0,0,224.3,462.13Z" transform="translate(-0.84)" fill="#45a82c"/>
    <rect id="Rectangle_56" data-name="Rectangle 56" width="21.76" height="49.62" transform="translate(197.8)" fill="#45a82c"/>
    <path id="Path_272" data-name="Path 272" d="M44.14,202.69q-4.66-10.2-12.92-15.2a36,36,0,0,0-19-5A39.55,39.55,0,0,0,.84,184.08v17A16.68,16.68,0,0,1,12.21,197,16.6,16.6,0,0,1,27,205.17q5.24,8.13,5.23,23.29T27,251.68a16.64,16.64,0,0,1-14.76,8.06,16.75,16.75,0,0,1-11.37-4v17.1a39.551,39.551,0,0,0,11.37,1.6,35.871,35.871,0,0,0,19-5q8.27-5,12.92-15.24t4.66-25.7Q48.8,212.89,44.14,202.69Z" transform="translate(-0.84)" fill="#45a82c"/>
    <path id="Path_273" data-name="Path 273" d="M299.55,789.41V812h12.92V774.11H302.4a33.87,33.87,0,0,1-16.86,7v12.51a28.59,28.59,0,0,0,7.07-1.19A32.231,32.231,0,0,0,299.55,789.41Z" transform="translate(-0.84)" fill="#45a82c"/>
    <path id="Path_274" data-name="Path 274" d="M374.35,93a14.75,14.75,0,0,1-5.9,1.15,12.94,12.94,0,0,1-11.63-6.28q-4-6.29-4-17.66t4-17.64a13,13,0,0,1,11.63-6.26,14.75,14.75,0,0,1,5.9,1.15V42.35a21.52,21.52,0,0,0-5.9-.78,19.49,19.49,0,0,0-11.11,3.17A20.44,20.44,0,0,0,350,54.28q-2.61,6.38-2.61,16t2.61,16a20.5,20.5,0,0,0,7.34,9.61A19.35,19.35,0,0,0,368.45,99a21.52,21.52,0,0,0,5.9-.78Z" transform="translate(-0.84)" fill="#45a82c"/>
    <path id="Path_275" data-name="Path 275" d="M374.35,254.49V168.81h-3.76a29,29,0,0,1-7.72,4.69,35.54,35.54,0,0,1-8.33,2.25v10.33a25.73,25.73,0,0,0,7.18-1.32,27.22,27.22,0,0,0,6.83-3.44v73.17Z" transform="translate(-0.84)" fill="#45a82c"/>
    <path id="Path_276" data-name="Path 276" d="M374.61,666.5a20.354,20.354,0,0,1-2.5.16,16.78,16.78,0,0,1-14.86-8.06Q352,650.55,352,635.38t5.27-23.29A16.73,16.73,0,0,1,372.11,604a20.341,20.341,0,0,1,2.5.16V589.48c-.82,0-1.66-.07-2.5-.07a36.231,36.231,0,0,0-19.14,5q-8.27,5-12.93,15.2t-4.65,25.77q0,15.5,4.65,25.7T353,676.31a36,36,0,0,0,19.14,5c.84,0,1.68,0,2.5-.08Z" transform="translate(-0.84)" fill="#45a82c"/>
    <path id="Path_277" data-name="Path 277" d="M375,787h-.39a11,11,0,0,0-10.76,7.19,23.079,23.079,0,0,0-1.54,9.06,23.88,23.88,0,0,0,1.42,8.78h4.41a18.36,18.36,0,0,1-1.78-8.78q0-6.08,2.12-9.39a6.85,6.85,0,0,1,6.13-3.31H375Z" transform="translate(-0.84)" fill="#45a82c"/>
  </g>
</svg>
